<svg width="1729" height="359" viewBox="0 0 1729 359" fill="none" xmlns="http://www.w3.org/2000/svg">
<path d="M1579.35 114.608C1598.94 147.141 1621.38 178.379 1632.63 215.148C1636.43 228.011 1636.03 245.971 1623.03 254.693C1610.97 263.156 1596.54 264.781 1582.46 265.802C1555.1 267.234 1527.63 264.097 1500.18 260.326C1446.6 252.645 1392.09 240.861 1338.95 228.638C1232.71 203.921 1127.4 175.599 1021.18 146.186C900.609 112.81 783.661 81.6008 664.455 54.9683C612.299 43.4196 553.036 31.3863 499.398 24.3319C470.85 20.7079 444.084 17.9552 416.316 19.0323C403.794 19.665 389.384 21.1885 379.672 26.6651C377.45 27.983 375.914 29.2226 374.64 30.9302C373.506 32.5102 372.973 34.0188 372.802 36.0334C372.519 40.4817 374.196 45.5773 377.442 51.6521C405.437 95.7311 454.17 130.212 497.268 166.064C508.161 174.908 519.611 184.157 530.042 193.389C532.54 195.603 535.889 198.659 538.305 201.034C539.634 202.338 540.522 203.23 542.024 204.822C543.615 206.518 545.007 208.125 546.202 209.702C546.799 210.492 547.347 211.276 547.847 212.076C547.909 212.176 547.971 212.276 548.032 212.377C548.096 212.483 548.137 212.55 548.276 212.787C548.508 213.186 548.728 213.591 548.936 214.009C549.349 214.847 549.715 215.732 549.989 216.739C550.532 218.672 550.724 221.573 549.212 224.252C547.767 226.845 545.313 228.207 543.377 228.791C542.379 229.1 541.422 229.269 540.467 229.369C539.99 229.419 539.513 229.45 539.032 229.466C538.925 229.47 538.747 229.475 538.71 229.475C538.657 229.476 538.603 229.476 538.549 229.477C538.442 229.478 538.334 229.478 538.226 229.478C537.362 229.475 536.477 229.431 535.555 229.351C533.712 229.193 531.716 228.897 529.495 228.472C498.2 221.014 477.344 211.803 447.604 200.407C393.691 179.422 339.925 158.921 284.039 149.748C256.535 145.637 226.271 145.242 204.473 163.414C193.485 171.904 182.783 182.822 168.568 188.111C154.646 193.522 139.735 194.068 125.255 192.988C86.9981 189.509 50.8559 177.262 15.0005 164.499C51.2225 176.069 87.8475 187.118 125.478 189.385C154.663 192.297 180.129 179.559 200.706 158.622C223.707 138.309 257.06 137.898 285.168 141.464C342.856 149.479 397.292 168.947 452.001 188.986C481.474 199.735 503.621 208.619 532.001 214.878C535.768 215.547 538.146 215.618 539.173 215.431C539.015 215.455 537.748 215.959 536.938 217.413C536.084 218.915 536.343 220.318 536.397 220.475C536.427 220.593 536.41 220.518 536.309 220.326C536.259 220.23 536.188 220.103 536.098 219.953C535.997 219.787 535.978 219.763 535.911 219.659C535.674 219.299 535.352 218.853 534.953 218.346C530.654 213.137 526.184 209.317 520.479 204.336C510.308 195.63 498.778 186.589 487.791 177.943C443.851 142.086 395.64 110.769 362.248 59.945C358.199 52.2157 354.962 45.3956 355.329 34.8303C355.311 25.0999 363.981 14.7967 370.651 11.4296C386.41 2.75696 401.623 2.03648 415.406 1.00614C445.338 -0.353205 472.581 2.36537 501.761 5.90543C556.435 12.8147 616.107 24.8064 668.57 36.4192C788.419 63.1971 905.419 95.1134 1025.82 129.814C1131.62 160.335 1236.34 190.264 1341.75 217.077C1394.46 230.349 1448.51 243.301 1501.42 252.273C1528.51 256.695 1555.64 260.483 1582.18 259.831C1595.81 259.27 1609.66 257.824 1620.22 250.781C1631.28 243.847 1632.37 228.792 1629.13 216.008C1619.35 180.071 1597.83 147.674 1579.35 114.608Z" fill="#F3F3E0"/>
<path d="M1634.9 125.717C1634.45 124.895 1634.34 123.929 1634.59 123.024C1634.84 122.119 1635.44 121.351 1636.25 120.888C1637.06 120.425 1638.03 120.303 1638.93 120.547C1639.84 120.792 1640.61 121.385 1641.09 122.189C1641.09 122.189 1641.09 122.189 1641.09 122.189C1662 157.424 1683.31 193.028 1701.87 229.703C1711.15 248.396 1719.93 267.022 1725.4 287.891C1727.91 298.029 1729.85 309.492 1727.56 321.196C1725.48 333.393 1716.28 344.352 1705.53 349.409C1662.14 366.391 1620.44 356.193 1579.4 351.03C1497.95 337.579 1418.38 317.034 1338.79 296.311C1242.92 271.019 1145.75 243.899 1049.49 217C878.967 170.012 707.888 122.507 535.092 94.2075C490.633 88.0261 447.48 81.1047 406.276 88.2263C403.869 88.7767 402.094 89.2507 399.78 90.0349C397.137 90.944 394.997 91.939 393.322 92.9444C392.483 93.4469 391.76 93.9513 391.14 94.4483C390.527 94.9293 389.708 95.7109 389.223 96.3144C388.187 97.5852 387.649 98.7588 387.349 100.161C385.967 106.331 391.224 116.274 397.094 124.179C409.502 140.802 426.192 155.856 442.616 170.01C475.882 198.58 512.131 223.83 546.354 252.504C551.572 257.187 554.257 259.206 559.41 265.633C559.91 266.31 560.371 266.991 560.793 267.702C561.003 268.057 561.204 268.421 561.394 268.798C561.418 268.845 561.441 268.892 561.465 268.94C561.486 268.982 561.555 269.125 561.599 269.219C561.696 269.426 561.79 269.638 561.88 269.856C562.059 270.292 562.223 270.751 562.362 271.245C562.922 273.123 563.093 276.122 561.428 278.737C559.428 281.562 558.163 281.783 556.909 282.391C554.392 283.336 552.23 283.383 549.773 283.292C549.467 283.278 549.157 283.259 548.842 283.235C548.645 283.22 548.627 283.218 548.54 283.211C548.464 283.205 548.389 283.198 548.313 283.191C548.011 283.164 547.704 283.133 547.392 283.098C546.768 283.028 546.126 282.944 545.46 282.845C542.801 282.45 539.775 281.83 536.279 280.976C535.847 280.871 535.379 280.755 534.963 280.649C534.685 280.578 534.404 280.506 534.121 280.433C533.554 280.285 532.976 280.132 532.386 279.974C531.206 279.657 529.98 279.317 528.706 278.954C526.159 278.227 523.42 277.408 520.477 276.492C517.602 275.599 514.068 274.455 512.129 273.809C503.47 270.963 489.895 266.151 480.959 262.841C471.47 259.346 460.932 255.366 449.266 250.868C392.416 229.364 335.166 209.082 275.87 203.985C247.087 201.822 215.765 205.383 194.22 224.87C183.088 234.048 174.652 247.103 160.371 256.032C145.811 265.176 127.662 263.529 112.92 259.483C72.1909 247.298 37.7656 224.944 2.60199 203.046C1.80832 202.539 1.24442 201.739 1.03666 200.819C0.828879 199.9 0.993857 198.936 1.49572 198.139C1.99758 197.342 2.7957 196.777 3.71493 196.567C4.63418 196.357 5.59883 196.52 6.39899 197.017C6.39899 197.017 6.39899 197.017 6.39899 197.017C41.5025 218.329 76.5562 240.145 115.11 251.109C129.163 254.759 144.159 255.599 155.592 248.178C167.202 240.941 175.871 227.839 187.856 217.526C211.751 195.42 246.786 191.309 276.563 193.285C338.362 197.981 396.114 217.997 453.735 239.131C465.388 243.511 475.901 247.372 485.346 250.743C494.247 253.931 507.706 258.594 516.205 261.284C518.112 261.893 521.57 262.987 524.364 263.829C527.223 264.694 529.867 265.459 532.299 266.127C533.515 266.461 534.678 266.772 535.788 267.058C536.344 267.201 536.886 267.338 537.415 267.469C537.679 267.535 537.941 267.599 538.199 267.662C538.585 267.757 539.017 267.861 539.414 267.955C542.624 268.716 545.289 269.229 547.375 269.516C547.895 269.587 548.379 269.645 548.825 269.69C549.047 269.712 549.261 269.731 549.464 269.747C549.582 269.756 549.608 269.758 549.811 269.772C550.013 269.786 550.203 269.796 550.382 269.803C551.804 269.888 552.508 269.622 551.927 269.802C551.634 269.986 551.097 269.922 549.942 271.535C548.952 273.073 549.205 274.705 549.301 274.943C549.354 275.121 549.33 275.033 549.283 274.949C549.248 274.884 549.196 274.792 549.126 274.677C548.986 274.448 548.772 274.132 548.49 273.758C545.134 269.611 542.204 267.133 537.372 262.919C504.12 235.52 467.063 210.086 433.026 181.315C416.1 166.903 398.92 151.866 384.773 133.275C378.431 123.938 369.941 113.758 372.104 97.1064C375.691 80.1145 393.617 75.0752 402.754 72.8503C449.96 64.5566 492.021 71.9081 537.544 77.7883C712.335 105.392 883.527 152.286 1054.51 199C1150.8 225.69 1247.96 252.699 1343.63 277.937C1423 298.612 1502.31 319.702 1582.22 334.164C1621.76 340.273 1665.14 349.121 1699 336.211C1715.47 329.517 1717.21 310.001 1712.58 290.96C1708.14 271.835 1700.16 253.253 1691.61 234.662C1674.47 198.019 1654.41 161.693 1634.9 125.717Z" fill="#CBDCEB"/>
</svg>
