<svg width="378" height="481" viewBox="0 0 378 481" fill="none" xmlns="http://www.w3.org/2000/svg">
<path d="M13.4131 53.9646L13.4785 54.0632L13.4932 54.1804L21.4639 118.444L25.2617 120.818L25.3252 120.857L25.373 120.913L28.7324 124.753L31.748 124.896C30.6513 125.065 29.7456 125.267 28.9932 125.501C27.3214 126.02 26.3648 126.688 25.7393 127.437C25.4311 127.806 25.215 128.18 25.0361 128.532C24.841 128.916 24.7312 129.181 24.5566 129.505L24.4844 129.639L24.499 129.791L45.999 348.791L46.0088 348.886L46.0537 348.972C48.6302 353.932 54.4325 358.398 62.5625 362.338C70.7106 366.286 81.2763 369.743 93.4912 372.642C117.924 378.441 149.022 382.023 180.734 382.804C212.447 383.586 244.799 381.57 271.736 376.162C285.205 373.458 297.333 369.903 307.355 365.42C317.373 360.938 325.321 355.514 330.391 349.051L330.478 348.939L330.494 348.799L355.994 123.299L356.098 122.377L355.271 122.796L322.349 139.48C292.348 143.826 274.846 146.135 262.998 146.579C251.174 147.022 245.019 145.607 237.696 142.505L237.547 142.441L237.389 142.477C231.1 143.925 226.114 145.385 221.765 146.683C217.41 147.983 213.711 149.114 209.966 149.919C202.506 151.522 194.846 151.832 181.589 149.472L181.553 149.466L181.516 149.465C162.706 148.905 153.572 149.301 145.137 148.052C136.739 146.81 129.051 143.935 113.207 136.786L113.115 136.745L113.016 136.742L60.5156 135.242L60.4033 135.239L60.3008 135.284L43.8008 142.507L43.6064 142.592L43.5322 142.79L36.4971 161.687V147.389L42.8086 137.696L51.0957 136.234L51.5088 136.162V125.837L60.0205 126.243H60.0342L60.0469 126.245L75.0469 127.745L75.0576 127.746L99.5186 130.741C109.289 130.493 115.386 130.508 120.829 131.527C126.282 132.548 131.053 134.57 138.186 138.277C145.563 140.727 153.371 140.102 162.03 139.405C170.672 138.709 180.113 137.951 190.592 140.251C195.81 141.263 198.775 141.734 201.795 141.721C204.803 141.709 207.884 141.217 213.318 140.265C220.448 135.873 226.792 134.025 232.742 133.958C238.71 133.891 244.236 135.616 249.711 138.29L250.327 138.576C253.36 139.953 255.691 140.566 257.938 140.538C260.338 140.508 262.701 139.747 265.783 138.29L265.86 138.254L265.944 138.245L298.934 134.746C309.878 133.347 316.063 132.466 329.33 127.77L329.339 127.767L357.544 118.365L365.502 60.6736L365.515 60.5808L365.56 60.4988L370.56 51.4988L371.494 51.7937L341.499 337.741C343.755 356.557 329.916 371.061 307.265 381.268C284.561 391.499 252.805 397.521 218.773 399.303C184.735 401.087 148.378 398.632 116.456 391.88C84.551 385.131 57.004 374.075 40.6533 358.605L40.5186 358.477L40.5 358.294L8.5 48.2937L9.41309 47.9646L13.4131 53.9646Z" fill="#131111"/>
<path d="M37.9082 359.799C40.0989 366.005 46.1369 371.826 55.1973 377.108C64.2427 382.381 76.2248 387.073 90.1748 391.054C118.073 399.017 153.766 404.122 189.392 405.402C225.02 406.682 260.544 404.136 288.112 396.817C301.897 393.158 313.667 388.312 322.462 382.175C331.253 376.04 337.044 368.637 338.947 359.859L339.935 360.008C337.964 383.015 336.885 400.702 336.034 413.485C335.609 419.874 335.24 425.045 334.844 429.039C334.449 433.02 334.024 435.877 333.476 437.615L333.455 437.681L333.417 437.74C323.677 452.54 302.126 462.449 275.1 468.492C248.039 474.543 215.353 476.746 183.168 476.027C150.981 475.308 119.27 471.665 94.1523 466.008C81.5949 463.179 70.6713 459.844 62.1562 456.113C53.7558 452.432 47.6237 448.332 44.6201 443.888C44.0141 443.664 43.5464 443.107 43.1689 442.359C42.7441 441.517 42.3779 440.328 42.0488 438.78C41.3894 435.678 40.8535 431.005 40.3477 424.469C39.3354 411.387 38.4371 390.731 36.9375 359.989L37.9082 359.799ZM41.5 370.489C42.8213 397.601 44.2115 415.373 45.7041 426.472C46.4499 432.019 47.2243 435.922 48.0361 438.5C48.4416 439.787 48.8637 440.77 49.3125 441.467C49.7072 442.079 50.1581 442.524 50.6846 442.718C53.3641 446.655 59.1313 450.101 67.1074 453.067C75.2132 456.081 85.6999 458.635 97.8057 460.689C122.02 464.799 152.775 466.92 184.058 466.7C215.34 466.48 247.172 463.92 273.539 458.658C286.722 456.027 298.553 452.718 308.27 448.682C317.978 444.65 325.619 439.875 330.38 434.289L330.445 434.212L330.476 434.115C331.431 431.083 332.066 425.285 332.896 415.249C333.73 405.177 334.76 390.8 336.497 370.508L335.511 370.359C333.843 378.061 328.333 384.576 319.828 389.985C311.323 395.395 299.869 399.668 286.415 402.895C259.511 409.349 224.722 411.594 189.841 410.466C154.962 409.337 120.025 404.835 92.8301 397.814C79.2307 394.303 67.5864 390.167 58.8584 385.518C50.1084 380.858 44.3874 375.734 42.4707 370.299L41.5 370.489Z" fill="black"/>
<path d="M29.0013 121.465L32.5013 125.465L64.0013 126.965L79.0013 128.465L103.501 131.465C123.096 130.966 127.714 131.535 142.001 138.965C157.001 143.965 173.698 136.395 194.501 140.965C204.934 142.989 206.535 142.886 217.501 140.965C231.706 132.183 242.633 133.655 253.501 138.965C260.241 142.152 263.79 141.901 270.001 138.965L303.001 135.465C313.965 134.063 320.188 133.176 333.501 128.465L355.223 117.965L359.501 72.9646L333.501 346.465C270 400.965 80 378.965 51 353.465L22.5 66.9646L27.4036 107.965L29.0013 121.465Z" stroke="black" stroke-width="2"/>
<path d="M257.5 137.062C253.731 133.166 253.997 130.507 246.5 128.562C252.16 126.88 255.337 126.027 261 128.562C255.096 129.195 254.66 131.26 257.5 137.062Z" fill="#121111"/>
<path d="M39 130.965C61.7459 130.711 79.9984 131.092 102 137.465M125.5 136.965C141 146.465 145.342 144.892 161.5 145.965C180.031 142.653 190.025 143.3 207 149.965M35 119.465C56.39 121.292 75.4295 123.245 102 127.465M138.5 130.965C145.034 136.654 150.497 137.358 161.5 136.965M207 136.965C215.616 137.268 220.563 135.531 229.5 130.965M256 145.465C268.5 148.465 262 141.965 311 138.465M310 106.965C328.304 106.598 341.069 110.892 354 115.965M20.5 117.465C22.9673 113.833 30.2475 110.355 69 103.965M315 108.965C333.5 109.965 338.569 112.392 351.5 117.465M25 119.465C29.905 115.987 28.8996 115.783 62 107.465" stroke="black" stroke-width="2" stroke-linecap="round"/>
<path d="M154.749 1.00293C131.934 1.6915 109.812 3.03507 89.7852 4.97266C60.2852 7.82671 35.3628 11.9675 19.4619 17.1826L22.2041 22.6895L22.3867 23.0547L22.0654 23.3066L10.5654 32.3057L10.3164 32.5L10.0332 32.3594L8.40723 31.5469C7.85862 32.3185 7.59614 32.9573 7.58105 33.6816C7.56396 34.5089 7.86938 35.5251 8.63574 37.0508C26.1884 46.9605 56.2601 54.1481 91.8672 58.7373C127.543 63.3353 168.707 65.3191 208.251 64.8506C247.797 64.382 285.705 61.4604 314.872 56.2559C329.458 53.6533 341.838 50.4832 351.14 46.7715C355.79 44.9157 359.657 42.9302 362.64 40.8223C365.486 38.8106 367.503 36.7036 368.644 34.5166L358.561 24.8545L360.154 24.9971L369.603 34.0518L369.864 34.3027L369.707 34.6289C368.501 37.1391 366.282 39.4726 363.217 41.6387C360.149 43.8067 356.206 45.8266 351.511 47.7002C342.121 51.4474 329.665 54.6329 315.048 57.2412C285.809 62.4585 247.842 65.3807 208.263 65.8496C168.682 66.3186 127.471 64.3336 91.7402 59.7285C56.0304 55.1261 25.7259 47.8994 8.00977 37.8477L7.87988 37.7734L7.81152 37.6396C6.97923 36.0077 6.55813 34.7708 6.58105 33.6611C6.60462 32.5251 7.09022 31.6039 7.86133 30.6064L8.1123 30.2812L8.48047 30.4648L10.1973 31.3232L21.127 22.7695L18.5039 17.501C12.2682 19.6122 7.54476 21.881 4.5791 24.2803C1.5536 26.7281 0.460151 29.2121 1.24609 31.7646L1.26172 31.8145L1.2666 31.8672L1.43848 33.7881C2.36535 38.964 7.12353 43.7953 15.1963 48.2012C24.2002 53.1151 37.1502 57.4015 52.8857 60.9951C84.3491 68.1806 126.828 72.5698 170.84 73.7256C214.849 74.8813 260.365 72.803 297.899 67.0664C316.667 64.198 333.426 60.417 346.998 55.6738C360.498 50.9558 370.786 45.3032 376.782 38.7012C377.051 35.1265 375.59 31.8051 372.538 28.7109C369.783 25.9181 365.75 23.335 360.598 20.957L360.692 19.8984C366.061 22.3453 370.322 25.0405 373.25 28.0088C376.496 31.3003 378.127 34.952 377.767 38.957V38.9609L377.269 38.9121L377.766 38.9648C377.765 38.9674 377.765 38.9716 377.765 38.9766C377.764 38.9869 377.762 39.0029 377.76 39.0234C377.756 39.065 377.749 39.1276 377.741 39.21C377.725 39.3749 377.7 39.6214 377.668 39.9463C377.603 40.5968 377.508 41.5639 377.383 42.8262C377.132 45.351 376.764 49.061 376.294 53.8008C375.353 63.2811 374.003 76.8831 372.366 93.3672C369.092 126.336 364.669 170.837 360.074 216.962C350.885 309.21 341.01 407.961 338.266 433.964L338.264 433.985L338.26 434.007C336.724 441.934 331.179 448.783 322.716 454.595C314.251 460.407 302.819 465.217 289.399 469.057C262.558 476.738 227.664 480.568 192.386 480.725C157.106 480.881 121.406 477.364 92.9492 470.328C78.7221 466.81 66.287 462.408 56.6152 457.136C46.9527 451.868 39.9906 445.699 36.8008 438.618L36.7666 438.541L36.7588 438.457L0.451172 33.9639C0.334955 33.3116 0.273542 32.651 0.269531 31.9824C-0.643004 28.8971 0.800491 26.0512 3.9502 23.5029C7.12135 20.9374 12.1233 18.5753 18.5986 16.4131C34.5838 11.0754 59.8335 6.86595 89.6885 3.97754C109.775 2.03424 131.961 0.688148 154.839 0L154.749 1.00293ZM37.7461 438.279C40.8214 445.043 47.5484 451.054 57.0938 456.258C66.6641 461.475 79.0105 465.851 93.1895 469.356C121.546 476.367 157.16 479.881 192.381 479.725C227.604 479.568 262.4 475.743 289.124 468.096C302.488 464.272 313.807 459.499 322.149 453.771C330.489 448.044 335.804 441.397 337.274 433.829C340.023 407.785 349.894 309.077 359.079 216.862C363.674 170.738 368.097 126.237 371.371 93.2686C373.008 76.7844 374.358 63.1825 375.299 53.7021C375.769 48.9623 376.137 45.2523 376.388 42.7275C376.485 41.7421 376.564 40.9365 376.625 40.3213C370.366 46.695 360.243 52.1035 347.328 56.6172C333.678 61.3877 316.853 65.1808 298.05 68.0547C260.442 73.8025 214.865 75.8814 170.813 74.7246C126.764 73.5678 84.2134 69.1751 52.6631 61.9697C36.8924 58.3681 23.839 54.0567 14.7168 49.0781C8.47749 45.6729 3.99362 41.9079 1.79688 37.7822L37.7461 438.279Z" fill="black"/>
<path d="M51 437.465L47 385.465L65 447.465L51 437.465Z" fill="#131111"/>
<path d="M65 415.465C95 435.721 255.5 454.465 324.5 411.465V393.465L333.5 381.465L329.5 431.965L318 440.965L324.5 426.965V420.965C256.764 450.727 199.276 451.812 69.5 431.965L65 415.465Z" fill="#131111"/>
<path d="M51 388.965L65 437.465M55.5 388.965L71.5 447.465M47 385.465L51 437.465L65 447.465L47 385.465ZM65 415.465C95 435.721 255.5 454.465 324.5 411.465V420.965C256.764 450.727 199.276 451.812 69.5 431.965L65 415.465ZM324.5 393.465L333.5 381.465L329.5 431.965L318 440.965L324.5 426.965V393.465Z" stroke="black"/>
<path d="M312 442.465C249 465.465 172.501 461.694 89.5 447.965L87 443.465C170.001 457.194 251.5 459.965 314.5 436.965L312 442.465Z" fill="black" stroke="black"/>
<path d="M0.769516 31.9894C0.769516 81.4901 328.758 92.9901 377.27 38.9894C377.957 31.3461 371.086 24.9357 358.758 19.6653L357.258 22.9901L369.258 34.4901C350.758 72.9901 78.7578 77.4901 8.25781 37.4901C6.609 34.2573 6.77106 32.9133 8.25781 30.9901L10.2578 31.9894L21.7578 22.9901L18.7578 16.9646C5.84257 21.2772 -0.976078 26.3218 0.769516 31.9894Z" fill="black" stroke="black"/>
</svg>
