<svg width="493" height="652" viewBox="0 0 493 652" fill="none" xmlns="http://www.w3.org/2000/svg">
<path d="M145.908 530.799C148.099 537.005 154.137 542.826 163.197 548.108C172.243 553.381 184.225 558.073 198.175 562.054C226.073 570.017 261.766 575.122 297.392 576.402C333.02 577.682 368.544 575.136 396.112 567.817C409.897 564.158 421.667 559.312 430.462 553.175C439.253 547.04 445.044 539.637 446.947 530.859L447.935 531.008C445.964 554.015 444.885 571.702 444.034 584.485C443.609 590.874 443.24 596.045 442.844 600.039C442.449 604.02 442.024 606.877 441.476 608.615L441.455 608.681L441.417 608.74C431.677 623.54 410.126 633.449 383.1 639.492C356.039 645.543 323.353 647.746 291.168 647.027C258.981 646.308 227.27 642.665 202.152 637.008C189.595 634.179 178.671 630.844 170.156 627.113C161.756 623.432 155.624 619.332 152.62 614.888C152.014 614.664 151.546 614.107 151.169 613.359C150.744 612.517 150.378 611.328 150.049 609.78C149.389 606.678 148.854 602.005 148.348 595.469C147.335 582.387 146.437 561.731 144.938 530.989L145.908 530.799ZM149.5 541.489C150.821 568.601 152.211 586.373 153.704 597.472C154.45 603.019 155.224 606.922 156.036 609.5C156.442 610.787 156.864 611.77 157.312 612.467C157.707 613.079 158.158 613.524 158.685 613.718C161.364 617.655 167.131 621.101 175.107 624.067C183.213 627.081 193.7 629.635 205.806 631.689C230.02 635.799 260.775 637.92 292.058 637.7C323.34 637.48 355.172 634.92 381.539 629.658C394.722 627.027 406.553 623.718 416.27 619.682C425.978 615.65 433.619 610.875 438.38 605.289L438.445 605.212L438.476 605.115C439.431 602.083 440.066 596.285 440.896 586.249C441.73 576.177 442.76 561.8 444.497 541.508L443.511 541.359C441.843 549.061 436.333 555.576 427.828 560.985C419.323 566.395 407.869 570.668 394.415 573.895C367.511 580.349 332.722 582.594 297.841 581.466C262.962 580.337 228.025 575.835 200.83 568.814C187.231 565.303 175.586 561.167 166.858 556.518C158.108 551.858 152.387 546.734 150.471 541.299L149.5 541.489Z" fill="#FFFEFE"/>
<path d="M137.001 292.465L135.404 278.965L130.5 237.965L159 524.465C188 549.965 378 571.965 441.501 517.465L467.501 243.965L463.223 288.965" stroke="#FFFEFE" stroke-width="2"/>
<path d="M296.583 170.47C331.102 170.422 365.642 171.898 395.569 175.102C425.483 178.304 450.837 183.238 466.954 190.128C473.147 192.775 478.014 195.727 481.251 199.009C484.497 202.3 486.128 205.952 485.768 209.957V209.961L485.27 209.912L485.767 209.965C485.766 209.967 485.766 209.972 485.766 209.977C485.765 209.987 485.763 210.003 485.761 210.023C485.757 210.065 485.75 210.128 485.742 210.21C485.726 210.375 485.701 210.621 485.669 210.946C485.604 211.597 485.509 212.564 485.384 213.826C485.133 216.351 484.765 220.061 484.295 224.801C483.354 234.281 482.004 247.883 480.367 264.367C477.093 297.336 472.67 341.837 468.075 387.962C458.886 480.21 449.011 578.961 446.267 604.964L446.265 604.985L446.261 605.007C444.725 612.934 439.18 619.783 430.717 625.595C422.252 631.407 410.819 636.217 397.4 640.057C370.559 647.738 335.665 651.568 300.387 651.725C265.107 651.881 229.407 648.364 200.95 641.328C186.723 637.81 174.288 633.408 164.616 628.136C154.954 622.868 147.992 616.699 144.802 609.618L144.768 609.541L144.76 609.457L108.452 204.964C108.336 204.312 108.275 203.651 108.271 202.982C107.358 199.897 108.801 197.051 111.951 194.503C115.122 191.938 120.125 189.575 126.6 187.413C142.585 182.075 167.835 177.866 197.689 174.978C227.555 172.088 262.063 170.517 296.583 170.47ZM145.747 609.279C148.822 616.043 155.549 622.054 165.095 627.258C174.665 632.475 187.011 636.851 201.19 640.356C229.547 647.367 265.161 650.881 300.382 650.725C335.605 650.568 370.401 646.743 397.125 639.096C410.488 635.272 421.808 630.499 430.15 624.771C438.489 619.044 443.805 612.397 445.275 604.829C448.024 578.784 457.895 480.077 467.08 387.862C471.675 341.738 476.098 297.237 479.372 264.269C481.009 247.785 482.359 234.182 483.3 224.702C483.77 219.962 484.138 216.252 484.389 213.728C484.486 212.742 484.565 211.936 484.626 211.321C478.367 217.695 468.244 223.104 455.329 227.617C441.679 232.388 424.854 236.181 406.051 239.055C368.443 244.803 322.866 246.881 278.814 245.725C234.765 244.568 192.214 240.175 160.664 232.97C144.893 229.368 131.84 225.057 122.718 220.078C116.478 216.673 111.995 212.908 109.798 208.782L145.747 609.279ZM126.505 188.501C120.269 190.612 115.546 192.881 112.58 195.28C109.555 197.728 108.461 200.212 109.247 202.765L109.263 202.814L109.268 202.867L109.439 204.788C110.366 209.964 115.124 214.795 123.197 219.201C132.201 224.115 145.151 228.401 160.887 231.995C192.35 239.181 234.829 243.57 278.841 244.726C322.85 245.881 368.366 243.803 405.9 238.066C424.668 235.198 441.427 231.417 454.999 226.674C468.499 221.956 478.787 216.303 484.783 209.701C485.052 206.127 483.591 202.805 480.539 199.711C477.507 196.637 472.928 193.815 467.01 191.243L465.858 193.796L477.604 205.052L477.865 205.303L477.708 205.629C476.502 208.139 474.283 210.473 471.218 212.639C468.15 214.807 464.207 216.827 459.512 218.7C450.122 222.447 437.666 225.633 423.049 228.241C393.81 233.459 355.843 236.381 316.264 236.85C276.683 237.319 235.472 235.334 199.741 230.729C164.031 226.126 133.727 218.899 116.011 208.848L115.881 208.773L115.812 208.64C114.98 207.008 114.559 205.771 114.582 204.661C114.606 203.525 115.091 202.604 115.862 201.606L116.113 201.281L116.481 201.465L118.198 202.323L129.128 193.77L126.505 188.501ZM296.584 171.47C262.091 171.517 227.616 173.087 197.786 175.973C168.286 178.827 143.364 182.968 127.463 188.183L130.205 193.689L130.388 194.055L130.066 194.307L118.566 203.306L118.317 203.5L118.034 203.359L116.408 202.547C115.86 203.318 115.597 203.957 115.582 204.682C115.565 205.509 115.87 206.525 116.637 208.051C134.189 217.961 164.261 225.148 199.868 229.737C235.544 234.335 276.708 236.319 316.252 235.851C355.798 235.382 393.706 232.46 422.873 227.256C437.458 224.653 449.84 221.483 459.141 217.771C463.791 215.916 467.658 213.93 470.641 211.822C473.487 209.811 475.504 207.704 476.645 205.517L464.912 194.273L464.656 194.029L464.802 193.707L466.091 190.849C450.095 184.124 425.068 179.265 395.463 176.096C365.58 172.897 331.077 171.422 296.584 171.47Z" fill="#FFFEFE"/>
<path d="M159 608.465L155 556.465L173 618.465L159 608.465Z" fill="#FFFEFE"/>
<path d="M173 586.465C203 606.721 363.5 625.465 432.5 582.465V564.465L441.5 552.465L437.5 602.965L426 611.965L432.5 597.965V591.965C364.764 621.727 307.276 622.812 177.5 602.965L173 586.465Z" fill="#FFFEFE"/>
<path d="M159 559.965L173 608.465M163.5 559.965L179.5 618.465M155 556.465L159 608.465L173 618.465L155 556.465ZM173 586.465C203 606.721 363.5 625.465 432.5 582.465V591.965C364.764 621.727 307.276 622.812 177.5 602.965L173 586.465ZM432.5 564.465L441.5 552.465L437.5 602.965L426 611.965L432.5 597.965V564.465Z" stroke="#FFFEFE"/>
<path d="M420 613.465C357 636.465 280.501 632.694 197.5 618.965L195 614.465C278.001 628.194 359.5 630.965 422.5 607.965L420 613.465Z" fill="#FFFEFE" stroke="#FFFEFE"/>
<path d="M108.77 202.989C108.77 252.49 436.758 263.99 485.27 209.989C485.957 202.346 479.086 195.936 466.758 190.665L465.258 193.99L477.258 205.49C458.758 243.99 186.758 248.49 116.258 208.49C114.609 205.257 114.771 203.913 116.258 201.99L118.258 202.989L129.758 193.99L126.758 187.965C113.843 192.277 107.024 197.322 108.77 202.989Z" fill="#FFFEFE" stroke="#FFFEFE"/>
</svg>
