<svg width="494" height="647" viewBox="0 0 494 647" fill="none" xmlns="http://www.w3.org/2000/svg">
<path d="M106.988 213C119.013 203.889 127.632 200.794 148.988 201.5L133 184C124.413 176.962 118.207 174.121 96.5 177.5L20.5 201.5H15L7.5 205L6 201.5H1L9.5 190L7.5 186L22.5 175.5C21.1862 167.034 17.4522 162.37 31 153.5L28 150L40 143L37.5 139.5C40.8972 136.196 44.1842 134.671 54.5 133L50.9883 130.5C55.805 127.277 59.6899 126.353 69.5 127V124C89.861 124.42 101.078 130.223 121 144.5L115.5 133C102.496 131.423 98.0705 127.46 92.5 118L76.4884 93.5H81.4884C77.9583 86.4225 77.0498 82.3567 76.4884 75H81.4884C76.7029 68.283 76.6223 63.8732 76.4884 56L81.4884 58.5C79.2382 51.6294 80.1311 44.2669 81.4884 31.5L87.5 17.5C94.1416 12.3624 96.7489 8.5457 100.488 1L106.988 10.5L112.5 16L119 31H124.5C119.772 40.3787 120.645 47.066 121 58.5L124.5 70.5C124.153 59.5037 124.161 53.4727 130 47C133.368 55.1915 131.634 60.846 130 70.5L135 67.5L133 86H137L148.988 78.5L172.5 93.5V127L176.5 129L152.5 177.5L163 191.5C168.598 178.013 171.397 169.987 181 162L176.5 109.5L201 67.5L242 36L245 40L258 28L260.5 31.5L271.5 28V31.5C278.051 29.2738 281.807 25.7314 288.5 17.5V40L291.5 36L286 56L291.5 53.5L282.5 70.5H288.5L264.5 100L270 101.5L256 113.5H262.5L233.5 142L239.5 144.5L212 162L186 165.5C171.629 176.233 168.5 189 170 197L163 203.5L146.5 177.5H139.997C146.433 184.525 151.992 193.187 160.5 206L156 209.5C131.5 202.112 119.571 206.834 106.988 219C113.677 237.119 107.486 246.149 102.988 263L100.488 259.5C96.7113 266.372 94.0661 269.424 86.9884 271C83.9185 274.952 81.8603 276.966 76.4884 279.5C69.9596 284.884 66.3468 286.033 59.9883 287C57.0098 289.785 55.1131 291.119 50.9883 293C50.247 289.87 49.6996 288.803 47.9883 290C42.5117 294.192 39.4588 295.634 34 297.5C33.3064 291.777 33.3082 288.762 33.4953 283.5C32.5079 283 31.9998 271.5 33.4954 270L32.9883 261.5C38.6115 247.259 40.815 237.728 52.4883 233.5L45.4883 232C51.1044 227.512 54.8284 225.252 64.4884 222.5L56.9883 220.5C63.6168 216.395 68.4709 214.564 81.4884 213L72.4884 210.5C87.3528 206.932 96.0765 203.675 106.988 213Z" fill="#FFFEFE"/>
<path d="M337 42.5C320.023 43.6966 317.291 60.8877 312.5 96.5C333.5 83.5 349.958 82.9365 404.5 82C410.47 75.3787 415.497 67.5288 417.5 58H411C417.146 53.3079 417.5 47.5 420.5 36H414C423.362 30.6308 428.017 26.777 436 14.5C427.107 9.26982 421.811 8.26051 411 10.5V7C399.971 8.16651 394.749 9.41902 390 14.5V10.5C386.501 11.3182 384.689 12.4124 382 17.5V12.5C368.724 15.4644 363.482 17.8297 360 24V17.5C347.474 26.3857 340.581 31.3969 337 42.5Z" fill="#FFFEFE"/>
<path d="M137 86H133L135 67.5L130 70.5C131.634 60.846 133.368 55.1915 130 47C124.161 53.4727 124.153 59.5037 124.5 70.5L121 58.5C120.645 47.066 119.772 40.3787 124.5 31H119L112.5 16L106.988 10.5L100.488 1C96.7489 8.5457 94.1416 12.3624 87.5 17.5L81.4884 31.5C80.131 44.2669 79.2382 51.6294 81.4884 58.5L76.4884 56C76.6223 63.8732 76.7029 68.283 81.4884 75H76.4884C77.0498 82.3567 77.9583 86.4225 81.4884 93.5H76.4884C82.7413 103.068 86.2471 108.432 92.5 118C98.0705 127.46 102.496 131.423 115.5 133L121 144.5C101.078 130.223 89.861 124.42 69.5 124V127C59.6899 126.353 55.805 127.277 50.9883 130.5L54.5 133C44.1842 134.671 40.8972 136.196 37.5 139.5L40 143L28 150L31 153.5C17.4522 162.37 21.1862 167.034 22.5 175.5L7.5 186L9.5 190L1 201.5H6L7.5 205L15 201.5H20.5L96.5 177.5C118.207 174.121 124.413 176.962 133 184L148.988 201.5C127.632 200.794 119.013 203.889 106.988 213C96.0765 203.675 87.3528 206.932 72.4884 210.5L81.4884 213C68.4709 214.564 63.6168 216.395 56.9883 220.5L64.4884 222.5C54.8284 225.252 51.1044 227.512 45.4883 232L52.4883 233.5C40.815 237.728 38.6115 247.259 32.9883 261.5L33.4954 270C31.9998 271.5 32.5079 283 33.4953 283.5C33.3082 288.762 33.3064 291.777 34 297.5C39.4588 295.634 42.5117 294.192 47.9883 290C49.6996 288.803 50.247 289.87 50.9883 293C55.1131 291.119 57.0098 289.785 59.9883 287C66.3468 286.033 69.9596 284.884 76.4884 279.5C81.8603 276.966 83.9185 274.952 86.9884 271C94.0661 269.424 96.7113 266.372 100.488 259.5L102.988 263C107.486 246.149 113.677 237.119 106.988 219C119.571 206.834 131.5 202.112 156 209.5L160.5 206C151.992 193.187 146.433 184.525 139.997 177.5M137 86L124.5 133L135.5 173C137.072 174.437 138.556 175.927 139.997 177.5M137 86L148.988 78.5L172.5 93.5V127L176.5 129L152.5 177.5L163 191.5C168.598 178.013 171.397 169.987 181 162L176.5 109.5L201 67.5L242 36L245 40L258 28L260.5 31.5L271.5 28V31.5C278.051 29.2737 281.807 25.7314 288.5 17.5V40L291.5 36L286 56L291.5 53.5L282.5 70.5H288.5L264.5 100L270 101.5L256 113.5H262.5L233.5 142L239.5 144.5L212 162L186 165.5C171.629 176.233 168.5 189 170 197L163 203.5L146.5 177.5H139.997M312.5 96.5C317.291 60.8877 320.023 43.6966 337 42.5C340.581 31.3969 347.473 26.3857 360 17.5V24C363.482 17.8297 368.724 15.4644 382 12.5V17.5C384.689 12.4124 386.501 11.3182 390 10.5V14.5C394.749 9.41902 399.971 8.16651 411 7V10.5C421.811 8.26051 427.107 9.26982 436 14.5C428.017 26.777 423.362 30.6308 414 36H420.5C417.5 47.5 417.146 53.3079 411 58H417.5C415.497 67.5288 410.47 75.3787 404.5 82C349.958 82.9365 333.5 83.5 312.5 96.5Z" stroke="#FFFAFA"/>
<path d="M128.913 220L128.979 220.099L128.993 220.216L136.964 284.479L140.762 286.854L140.825 286.893L140.873 286.948L144.232 290.788L147.248 290.932C146.151 291.101 145.246 291.303 144.493 291.536C142.821 292.055 141.865 292.724 141.239 293.473C140.931 293.842 140.715 294.215 140.536 294.567C140.341 294.951 140.231 295.217 140.057 295.54L139.984 295.675L139.999 295.826L161.499 514.826L161.509 514.922L161.554 515.008C164.13 519.967 169.933 524.433 178.062 528.373C186.211 532.321 196.776 535.779 208.991 538.678C233.424 544.477 264.522 548.058 296.234 548.84C327.947 549.622 360.299 547.605 387.236 542.197C400.705 539.493 412.833 535.939 422.855 531.455C432.873 526.974 440.821 521.549 445.891 515.086L445.978 514.975L445.994 514.834L471.494 289.334L471.598 288.412L470.771 288.831L437.849 305.516C407.848 309.861 390.346 312.17 378.498 312.614C366.674 313.057 360.519 311.643 353.196 308.54L353.047 308.477L352.889 308.513C346.6 309.961 341.614 311.421 337.265 312.719C332.91 314.018 329.211 315.149 325.466 315.954C318.006 317.557 310.346 317.867 297.089 315.508L297.053 315.501L297.016 315.5C278.206 314.941 269.072 315.336 260.637 314.088C252.239 312.845 244.551 309.971 228.707 302.821L228.615 302.78L228.516 302.777L176.016 301.277L175.903 301.274L175.801 301.319L159.301 308.542L159.106 308.627L159.032 308.825L151.997 327.723V313.425L158.309 303.731L166.596 302.27L167.009 302.197V291.872L175.521 292.278H175.534L175.547 292.28L190.547 293.78L190.558 293.781L215.019 296.776C224.789 296.528 230.886 296.544 236.329 297.562C241.782 298.583 246.553 300.605 253.686 304.312C261.063 306.763 268.871 306.137 277.53 305.44C286.172 304.745 295.613 303.987 306.092 306.286C311.31 307.299 314.275 307.77 317.295 307.757C320.303 307.744 323.384 307.252 328.818 306.301C335.948 301.909 342.292 300.06 348.242 299.993C354.21 299.926 359.736 301.651 365.211 304.325L365.827 304.611C368.86 305.989 371.191 306.601 373.438 306.573C375.838 306.543 378.201 305.782 381.283 304.325L381.36 304.289L381.444 304.28L414.434 300.781C425.378 299.382 431.563 298.501 444.83 293.806L444.839 293.803L473.044 284.4L481.002 226.709L481.015 226.616L481.06 226.534L486.06 217.534L486.994 217.829L456.999 503.776C459.255 522.592 445.416 537.097 422.765 547.304C400.061 557.534 368.305 563.556 334.273 565.339C300.235 567.122 263.878 564.667 231.956 557.915C200.051 551.166 172.504 540.111 156.153 524.641L156.019 524.513L156 524.329L124 214.329L124.913 214L128.913 220Z" fill="#ADA8A8"/>
<path d="M153.408 525.834C155.599 532.04 161.637 537.862 170.697 543.144C179.743 548.417 191.725 553.108 205.675 557.09C233.573 565.053 269.266 570.157 304.892 571.438C340.52 572.718 376.044 570.171 403.612 562.853C417.397 559.193 429.167 554.347 437.962 548.21C446.753 542.075 452.544 534.672 454.447 525.895L455.435 526.043C453.464 549.05 452.385 566.738 451.534 579.521C451.109 585.91 450.74 591.08 450.344 595.074C449.949 599.055 449.524 601.912 448.976 603.65L448.955 603.717L448.917 603.775C439.177 618.575 417.626 628.484 390.6 634.527C363.539 640.578 330.853 642.782 298.668 642.062C266.481 641.343 234.77 637.7 209.652 632.043C197.095 629.215 186.171 625.88 177.656 622.148C169.256 618.467 163.124 614.368 160.12 609.924C159.514 609.699 159.046 609.142 158.669 608.395C158.244 607.553 157.878 606.364 157.549 604.815C156.889 601.713 156.354 597.041 155.848 590.504C154.835 577.423 153.937 556.767 152.438 526.024L153.408 525.834ZM157 536.524C158.321 563.637 159.711 581.408 161.204 592.508C161.95 598.054 162.724 601.957 163.536 604.535C163.942 605.822 164.364 606.805 164.812 607.502C165.207 608.115 165.658 608.56 166.185 608.753C168.864 612.69 174.631 616.137 182.607 619.103C190.713 622.116 201.2 624.67 213.306 626.725C237.52 630.834 268.275 632.955 299.558 632.735C330.84 632.516 362.672 629.955 389.039 624.693C402.222 622.062 414.053 618.753 423.77 614.718C433.478 610.685 441.119 605.91 445.88 600.324L445.945 600.247L445.976 600.15C446.931 597.118 447.566 591.32 448.396 581.284C449.23 571.212 450.26 556.836 451.997 536.543L451.011 536.395C449.343 544.097 443.833 550.611 435.328 556.021C426.823 561.43 415.369 565.704 401.915 568.931C375.011 575.384 340.222 577.63 305.341 576.501C270.462 575.372 235.525 570.871 208.33 563.85C194.731 560.339 183.086 556.202 174.358 551.554C165.608 546.893 159.887 541.769 157.971 536.334L157 536.524Z" fill="#FFFEFE"/>
<path d="M331.768 87.6738C372.729 71.3891 425.799 76.2107 463.235 117.845C477.175 133.347 482.7 156.906 482.7 176.182V176.399L482.652 176.612C474.644 212.899 465.558 233.965 450.502 246.346C435.458 258.716 414.827 262.09 384.835 264.177L383.738 264.253L383.124 263.419C439.798 258.415 470.163 218.058 472.526 177.127C473.729 156.295 467.679 135.309 454.151 118.774C440.619 102.234 419.628 90.1767 391.009 87.1641C355.541 83.4294 322.739 95.7288 300.511 116.065C280.922 133.987 269.521 158.181 271.796 183.158C262.321 140.417 291.513 103.677 331.768 87.6738Z" fill="#FFFEFE"/>
<path d="M367.331 165.197L367.274 164.962M367.274 164.962L353.831 109.697C353.831 93.6971 389.308 94.6971 399.831 104.697L372.331 165.197L370.831 157.697L367.274 164.962ZM439.331 133.697L377.831 170.697C373.833 172.027 373.127 171.459 373.831 168.697L389.831 153.197L378.831 159.697L404.331 105.697C419.831 104.697 442.831 117.697 439.331 133.697ZM439.331 133.697C456.051 140.422 459.577 148.762 455.331 170.697L383.331 173.697M380.831 184.197L439.831 215.197C431.267 231.364 422.998 234.683 405.831 236.697L384.331 209.697L392.331 212.197L372.331 182.697L370.831 194.197M351.831 203.197L355.469 198.889L354.969 191.995L362.969 182.697L359.331 191.197L356.831 217.197L359.331 212.197L364.831 231L362 204L365.831 179.197L361.331 181.197L352.969 195.389L350.469 199.889M356.831 179.197L287.331 181.197C283.831 181.197 283.831 186.197 284.831 190.197M378.831 179.197L395.831 175.697L454.331 173.697C460.831 181.197 454.09 204.123 441.831 211.197L378.831 179.197ZM363.331 175.697L286.331 176.697C275.831 164.962 288.724 142.201 301.331 138.197L363.331 175.697ZM364.831 172.697C341.482 158.185 328.215 150.099 307.831 134.697C304.336 126.868 322.331 105.697 347.331 106.697L365.831 166.197H361.331L364.831 172.697Z" stroke="#FFFAFA" stroke-width="2"/>
<path d="M389.942 114.889L388.942 101.889C388.171 100.438 384.623 101.171 373.442 104.889L374.442 100.389L370.442 106.389V102.845L368.442 108.889V100.389L364.442 106.389V102.845L360.942 103.389C359.38 106.165 358.846 107.85 357.942 110.889V104.889L355.442 103.889C366.488 97.0013 373.499 94.8532 389.942 99.3887L395.942 111.889L371.442 163.389L372.942 157.389L379.442 137.389L380.942 132.389H383.442L387.942 119.889H389.942V114.889Z" fill="#F5E8E8"/>
<path d="M411.442 114.889L405.442 106.389C413.442 101.889 439.509 115.117 438.442 127.389H436.442L430.442 135.889L438.442 134.389L388.942 164.889L373.442 171L380.942 164.889L391.442 157.389H395.942L411.442 147.889L426.942 135.889L432.442 121.889H430.442L428.942 115.389H422.942L423.942 111.889H418.942L417.442 114.889H411.442Z" fill="#F5E8E8"/>
<path d="M449.442 164.889L441.942 169.389H450.942L453.942 164.889H449.442Z" fill="#F5E8E8"/>
<path d="M352.942 132.389L347.442 121.889L352.942 139.389H357.942L349.442 106.389C319.473 104.889 306.843 125.114 307.442 135.889L367.442 173.889L362.942 166.889H367.442L355.442 140.889L352.942 147.889L360.942 164.889L355.442 157.389L349.442 161.889L327.942 146.889L313.442 128.389L316.942 129.389L321.442 123.389L324.942 124.889L331.442 128.389L327.942 123.389H330.442L327.942 117.389L330.442 119.889V117.389L335.942 119.889L332.473 111.889L336.973 115.389V110.889L341.473 111.889V108.889L347.442 111.889L352.942 132.389Z" fill="#F5E8E8"/>
<path d="M332.473 158.889L356.973 173.889L301.473 137.389C289.467 140.889 276.469 161.889 284.473 175.889H292.973V173.889H298.973L292.973 169.389L291.473 163.389L302.973 160.389L291.473 158.889L302.973 150.389L297.473 151.889V144.889L302.973 147.889L313.442 149.389L311.973 145.889L319.473 150.389L316.942 151.889L324.942 158.889L323.473 154.389L327.942 157.389L333.973 161.889L332.473 158.889Z" fill="#F5E8E8"/>
<path d="M402.969 202.889L393.969 199.389L398.969 204.389L402.969 202.889Z" fill="#F5E8E8"/>
<path d="M406.969 226.889L405.469 225.389L416.469 231.889C419.698 232.178 421.434 231.708 423.969 229.889L420.469 224.389L430.969 225.389V221.889H433.469L432.469 217.389H436.969L440.969 215.889C430.6 234.695 421.852 237.97 402.969 235.389L400.969 230.889L409.969 233.889L406.969 230.889L411.469 231.889L409.969 228.389L406.969 226.889Z" fill="#F5E8E8"/>
<path d="M446.969 177.889H453.942L455 173.889C459.5 181 453 207 441.942 210.5L436.969 204.389L446.969 205.889V200.889H449.442L453.942 188.5L446.969 185.389L453.942 186.889V180L446.969 177.889Z" fill="#F5E8E8"/>
<path d="M432.442 202.889L433.469 205.889L421.969 201.889L418.942 197.389L432.442 202.889Z" fill="#F5E8E8"/>
<path d="M372.5 190.5L371.442 193L372.5 183L377 190.5L374 189.389L377 196L372.5 190.5Z" fill="#F5E8E8"/>
<path d="M444.942 147.889L448.442 146.889M444.942 140.889L448.442 143.389M383.442 189.389L392.469 205.889M388.942 101.889L389.942 114.889V119.889H387.942L383.442 132.389H380.942L379.442 137.389L372.942 157.389L371.442 163.389L395.942 111.889L389.942 99.3887C373.499 94.8532 366.488 97.0013 355.442 103.889L357.942 104.889V110.889C358.846 107.85 359.38 106.165 360.942 103.389L364.442 102.845V106.389L368.442 100.389V108.889L370.442 102.845V106.389L374.442 100.389L373.442 104.889C384.623 101.171 388.171 100.438 388.942 101.889ZM405.442 106.389L411.442 114.889H417.442L418.942 111.889H423.942L422.942 115.389H428.942L430.442 121.889H432.442L426.942 135.889L411.442 147.889L395.942 157.389H391.442L380.942 164.889L373.442 171L388.942 164.889L438.442 134.389L430.442 135.889L436.442 127.389H438.442C439.509 115.117 413.442 101.889 405.442 106.389ZM441.942 169.389L449.442 164.889H453.942L450.942 169.389H441.942ZM347.442 121.889L352.942 132.389L347.442 111.889L341.473 108.889V111.889L336.973 110.889V115.389L332.473 111.889L335.942 119.889L330.442 117.389V119.889L327.942 117.389L330.442 123.389H327.942L331.442 128.389L324.942 124.889L321.442 123.389L316.942 129.389L313.442 128.389L327.942 146.889L349.442 161.889L355.442 157.389L360.942 164.889L352.942 147.889L355.442 140.889L367.442 166.889H362.942L367.442 173.889L307.442 135.889C306.843 125.114 319.473 104.889 349.442 106.389L357.942 139.389H352.942L347.442 121.889ZM356.973 173.889L332.473 158.889L333.973 161.889L327.942 157.389L323.473 154.389L324.942 158.889L316.942 151.889L319.473 150.389L311.973 145.889L313.442 149.389L302.973 147.889L297.473 144.889V151.889L302.973 150.389L291.473 158.889L302.973 160.389L291.473 163.389L292.973 169.389L298.973 173.889H292.973V175.889H284.473C276.469 161.889 289.467 140.889 301.473 137.389L356.973 173.889ZM393.969 199.389L402.969 202.889L398.969 204.389L393.969 199.389ZM405.469 225.389L406.969 226.889L409.969 228.389L411.469 231.889L406.969 230.889L409.969 233.889L400.969 230.889L402.969 235.389C421.852 237.97 430.6 234.695 440.969 215.889L436.969 217.389H432.469L433.469 221.889H430.969V225.389L420.469 224.389L423.969 229.889C421.434 231.708 419.698 232.178 416.469 231.889L405.469 225.389ZM453.942 177.889H446.969L453.942 180V186.889L446.969 185.389L453.942 188.5L449.442 200.889H446.969V205.889L436.969 204.389L441.942 210.5C453 207 459.5 181 455 173.889L453.942 177.889ZM433.469 205.889L432.442 202.889L418.942 197.389L421.969 201.889L433.469 205.889ZM371.442 193L372.5 190.5L377 196L374 189.389L377 190.5L372.5 183L371.442 193Z" stroke="#FFFAFA"/>
<path d="M417.422 262.152L433.909 291.63L434.733 293.076C451.86 323.427 456.826 352.61 461.621 372.664C463.91 382.236 458.502 392.094 448.35 402.139C438.173 412.207 422.701 422.993 403.391 434.616L403.283 434.774C394.589 447.439 389.81 454.427 386.611 466.636L386.57 466.791L386.505 466.938C366.999 511.012 357.564 524.416 342.026 538.603L342.027 538.604C340.558 539.95 338.602 540.706 336.431 541.073C334.252 541.441 331.722 541.441 328.945 541.159C323.393 540.596 316.559 538.876 308.984 536.343C293.815 531.27 275.326 522.819 257.492 513.296C239.655 503.771 222.39 493.129 209.675 483.644C203.325 478.907 198.048 474.413 194.397 470.452C192.574 468.474 191.104 466.573 190.113 464.795C189.273 463.287 188.691 461.713 188.659 460.167C188.164 459.166 188.128 458.009 188.257 456.922C188.424 455.509 188.92 453.765 189.69 451.654C190.509 449.41 191.69 446.615 193.257 443.156C193.322 443.403 193.409 443.645 193.522 443.879C193.559 445.338 194.108 446.815 194.889 448.217C195.816 449.883 197.189 451.658 198.887 453.501C202.285 457.191 207.193 461.374 213.092 465.778C224.906 474.599 240.944 484.492 257.511 493.346C274.074 502.198 291.249 510.056 305.346 514.773C312.384 517.129 318.74 518.732 323.911 519.257C326.497 519.52 328.861 519.521 330.9 519.176C332.932 518.832 334.777 518.121 336.168 516.847C350.618 503.642 359.389 491.164 377.504 450.196L377.568 450.05L377.609 449.895C380.572 438.575 384.997 432.099 393.07 420.328L393.153 420.206C411.073 409.409 425.442 399.384 434.899 390.02C444.333 380.678 449.404 371.467 447.261 362.495C442.81 343.867 438.195 316.722 422.279 288.494L421.514 287.149L407.236 261.602C409.788 261.432 412.552 261.282 415.577 261.132L416.816 261.07L417.422 262.152ZM161.176 301.359C160.468 303.652 159.662 305.087 157.997 306.687L157.461 307.202L157.392 307.942C156.279 319.877 156.23 326.267 157.396 336.695L157.428 336.987L157.543 337.257C163.438 351.103 169.698 360.907 179.765 367.54C189.782 374.14 203.301 377.423 223.306 378.895L224.091 378.952L224.705 378.459L226.203 377.255C223.797 381.523 221.531 385.713 219.31 390.024C198.478 388.396 184.315 384.869 173.775 377.931C162.971 370.818 156.245 360.301 149.9 345.413L149.785 345.143L149.752 344.852C148.499 333.643 148.55 326.777 149.748 313.943L149.817 313.201L150.354 312.686C152.941 310.203 153.633 308.077 154.794 303.168L155.115 301.809L156.503 301.643C157.936 301.472 159.309 301.376 161.176 301.359ZM247.22 166.777L260.579 181.348C262.578 181.236 264.61 181.15 266.689 181.093C281.924 180.672 299.713 181.716 325.618 184.551L330.909 185.142L331.821 185.246L332.337 186.006L359.838 226.506L359.954 226.678L360.033 226.87L367.912 246.076C372.574 251.556 376.22 255.87 378.852 259.443C379.323 260.084 379.766 260.708 380.181 261.315C378.073 261.827 376.081 262.448 374.107 263.219C373.242 261.364 371.984 259.401 370.382 257.224C367.938 253.902 364.554 249.895 360.233 244.812L352.925 226.982L352.846 226.79L352.729 226.618L327.194 188.98L326.679 188.22L325.766 188.115L320.853 187.566C296.796 184.932 280.271 183.96 266.115 184.352C264.206 184.404 262.339 184.482 260.504 184.584L248.146 171.095L247.433 170.316L246.389 170.466L204.075 176.506L203.568 176.578L203.159 176.886L153.546 214.059L152.001 215.217L153.104 216.802L188.638 267.882C184.866 270.563 181.516 273.365 178.924 275.887C177.442 277.328 176.184 278.702 175.231 279.929C174.321 281.101 173.543 282.324 173.238 283.44L173.196 283.595L173.18 283.753L173.174 283.81C172.656 288.658 172.267 292.13 173.56 296.234C170.148 296.097 168.016 296.084 166.255 296.175C166.134 293.67 166.412 291.093 166.745 287.978L166.751 287.916L166.769 287.757L166.811 287.603C167.13 286.431 167.952 285.136 168.93 283.878C169.95 282.565 171.3 281.092 172.893 279.544C175.706 276.81 179.353 273.767 183.458 270.86L145.104 215.771L144 214.186L145.547 213.027L198.978 173.028L199.388 172.722L199.894 172.649L245.463 166.149L246.507 166L247.22 166.777Z" fill="#FFFEFE"/>
<path d="M241.293 353.878C234.709 341.52 230.218 334.789 216.68 324.139L212.508 297.189C209.768 285.438 208.835 278.726 210.645 266.056M241.293 353.878C257.925 361.06 271.776 361.816 290.035 360.378M241.293 353.878C237.186 360.525 233.577 366.435 230.287 372M210.645 266.056C211.692 262.424 213.998 261.125 212.508 254.207C209.173 249.859 210.164 246.871 212.508 241.428C207.209 223.408 208.15 218.46 212.508 213.084C211.288 202.24 212.674 198.445 219.936 196.82L229.222 193.103C238.779 191.389 247.344 190.197 256.671 189.635M210.645 266.056V261.409C203.322 262.635 195.268 266.737 188.424 271.383M370 268.844C371.75 274.373 368.672 278.335 361.533 286.501L346.212 297.653C352.783 299.643 355.628 302.005 359.676 307.876L328.57 332.968L312.79 358.06C304.335 358.992 296.876 359.839 290.035 360.378M370 268.844C378.037 265.298 385.835 264.507 401.46 263.732L416.781 291.148C433.136 319.544 437.764 346.908 442.316 365.959C446.08 381.712 424.879 399.989 388.749 421.72M370 268.844C369.325 266.71 367.93 264.342 365.772 261.409C363.34 258.103 359.938 254.08 355.503 248.863L348.075 230.741L322.54 193.103C295.816 190.059 278.13 188.937 263.171 189.351C260.951 189.412 258.792 189.508 256.671 189.635M290.035 360.378C308.454 405.087 318.623 429.564 328.57 437.983C336.342 445.395 340.07 447.548 344.819 446.347C361.06 437.67 375.855 429.475 388.749 421.72M388.749 421.72C380.483 433.773 375.778 440.533 372.675 452.388C354.598 493.269 345.963 505.446 331.819 518.371C315.628 533.22 190.797 464.093 192.538 446.347C190.983 444.475 193.365 438.363 201.359 421.72C203.43 423.052 204.117 422.772 205.073 421.72C213.765 401.587 220.666 388.271 230.287 372M230.287 372L220.453 379.9C180.64 376.971 168.058 366.89 156.384 339.473C155.237 329.207 155.281 322.956 156.384 311.129C159.202 308.421 159.938 305.974 161.027 301.371C163.711 301.05 166.173 301.008 173.562 301.371C171.157 296.352 171.527 292.979 172.169 286.966C172.949 284.102 179.705 277.302 188.424 271.383M188.424 271.383L151.746 218.659L201.359 181.486L243.672 175.445L256.671 189.635" stroke="#FFFAFA" stroke-width="4"/>
<path d="M144.501 287.5L148.001 291.5L179.501 293L194.501 294.5L219.001 297.5C238.596 297.001 243.214 297.571 257.501 305C272.501 310 289.198 302.43 310.001 307C320.434 309.025 322.035 308.921 333.001 307C347.206 298.218 358.133 299.69 369.001 305C375.741 308.187 379.29 307.937 385.501 305L418.501 301.5C429.465 300.098 435.688 299.212 449.001 294.5L470.723 284L475.001 239L449.001 512.5C385.5 567 195.5 545 166.5 519.5L138 233L142.904 274L144.501 287.5Z" stroke="#FFFAFA" stroke-width="2"/>
<path d="M373 303.098C369.231 299.201 369.497 296.543 362 294.598C367.66 292.915 370.837 292.062 376.5 294.598C370.596 295.23 370.16 297.295 373 303.098Z" fill="#D7CFCF"/>
<path d="M154.5 297C177.246 296.746 195.498 297.128 217.5 303.5M241 303C256.5 312.5 260.842 310.928 277 312C295.531 308.688 305.525 309.335 322.5 316M150.5 285.5C171.89 287.327 190.93 289.281 217.5 293.5M254 297C260.534 302.689 265.997 303.393 277 303M322.5 303C331.116 303.303 336.063 301.566 345 297M371.5 311.5C384 314.5 377.5 308 426.5 304.5M425.5 273C443.804 272.633 456.569 276.927 469.5 282M136 283.5C138.467 279.869 145.748 276.391 184.5 270M430.5 275C449 276 454.069 278.427 467 283.5M140.5 285.5C145.405 282.023 144.4 281.818 177.5 273.5" stroke="#FFFAFA" stroke-width="2" stroke-linecap="round"/>
<path d="M270.249 167.038C247.434 167.727 225.312 169.07 205.285 171.008C175.785 173.862 150.863 178.003 134.962 183.218L137.704 188.725L137.887 189.09L137.565 189.342L126.065 198.341L125.816 198.535L125.533 198.395L123.907 197.582C123.359 198.354 123.096 198.993 123.081 199.717C123.064 200.544 123.369 201.561 124.136 203.086C141.688 212.996 171.76 220.183 207.367 224.773C243.043 229.371 284.207 231.355 323.751 230.886C363.297 230.417 401.205 227.496 430.372 222.291C444.958 219.689 457.338 216.519 466.64 212.807C471.29 210.951 475.157 208.966 478.14 206.858C480.986 204.846 483.003 202.739 484.144 200.552L474.061 190.89L475.654 191.032L485.103 200.087L485.364 200.338L485.207 200.664C484.001 203.175 481.782 205.508 478.717 207.674C475.649 209.842 471.706 211.862 467.011 213.736C457.621 217.483 445.165 220.668 430.548 223.277C401.309 228.494 363.342 231.416 323.763 231.885C284.182 232.354 242.971 230.369 207.24 225.764C171.53 221.161 141.226 213.935 123.51 203.883L123.38 203.809L123.312 203.675C122.479 202.043 122.058 200.806 122.081 199.697C122.105 198.561 122.59 197.639 123.361 196.642L123.612 196.317L123.98 196.5L125.697 197.359L136.627 188.805L134.004 183.536C127.768 185.648 123.045 187.916 120.079 190.316C117.054 192.763 115.96 195.248 116.746 197.8L116.762 197.85L116.767 197.903L116.938 199.823C117.865 204.999 122.624 209.831 130.696 214.237C139.7 219.151 152.65 223.437 168.386 227.031C199.849 234.216 242.328 238.605 286.34 239.761C330.349 240.917 375.865 238.838 413.399 233.102C432.167 230.233 448.926 226.452 462.498 221.709C475.998 216.991 486.286 211.339 492.282 204.737C492.551 201.162 491.09 197.84 488.038 194.746C485.283 191.954 481.25 189.37 476.098 186.992L476.192 185.934C481.561 188.381 485.822 191.076 488.75 194.044C491.996 197.336 493.627 200.987 493.267 204.992V204.996L492.769 204.948L493.266 205C493.265 205.003 493.265 205.007 493.265 205.012C493.264 205.022 493.262 205.038 493.26 205.059C493.256 205.1 493.249 205.163 493.241 205.245C493.225 205.41 493.2 205.657 493.168 205.982C493.103 206.632 493.008 207.599 492.883 208.862C492.632 211.386 492.264 215.096 491.794 219.836C490.853 229.317 489.503 242.919 487.866 259.403C484.592 292.371 480.169 336.872 475.574 382.997C466.385 475.245 456.51 573.997 453.766 599.999L453.764 600.021L453.76 600.042C452.224 607.969 446.679 614.819 438.216 620.63C429.751 626.443 418.319 631.252 404.899 635.092C378.058 642.773 343.164 646.604 307.886 646.76C272.606 646.916 236.906 643.399 208.449 636.364C194.222 632.846 181.787 628.444 172.115 623.171C162.453 617.903 155.491 611.735 152.301 604.654L152.267 604.576L152.259 604.492L115.951 199.999C115.835 199.347 115.774 198.686 115.77 198.018C114.857 194.932 116.3 192.087 119.45 189.538C122.621 186.973 127.623 184.611 134.099 182.448C150.084 177.111 175.333 172.901 205.188 170.013C225.275 168.07 247.461 166.724 270.339 166.035L270.249 167.038ZM153.246 604.315C156.321 611.079 163.048 617.089 172.594 622.293C182.164 627.511 194.51 631.886 208.689 635.392C237.046 642.403 272.66 645.916 307.881 645.76C343.104 645.604 377.9 641.778 404.624 634.131C417.988 630.307 429.307 625.534 437.649 619.806C445.989 614.079 451.304 607.432 452.774 599.865C455.523 573.82 465.394 475.113 474.579 382.898C479.174 336.773 483.597 292.273 486.871 259.304C488.508 242.82 489.858 229.218 490.799 219.738C491.269 214.998 491.637 211.288 491.888 208.763C491.985 207.777 492.064 206.972 492.125 206.357C485.866 212.73 475.743 218.139 462.828 222.653C449.178 227.423 432.353 231.216 413.55 234.09C375.942 239.838 330.365 241.917 286.313 240.76C242.264 239.603 199.713 235.21 168.163 228.005C152.392 224.403 139.339 220.092 130.217 215.114C123.977 211.708 119.494 207.943 117.297 203.818L153.246 604.315Z" fill="#FFFEFE"/>
<path d="M166.5 603.5L162.5 551.5L180.5 613.5L166.5 603.5Z" fill="#ADA8A8"/>
<path d="M180.5 581.5C210.5 601.756 371 620.5 440 577.5V559.5L449 547.5L445 598L433.5 607L440 593V587C372.264 616.763 314.776 617.847 185 598L180.5 581.5Z" fill="#ADA8A8"/>
<path d="M166.5 555L180.5 603.5M171 555L187 613.5M162.5 551.5L166.5 603.5L180.5 613.5L162.5 551.5ZM180.5 581.5C210.5 601.756 371 620.5 440 577.5V587C372.264 616.763 314.776 617.847 185 598L180.5 581.5ZM440 559.5L449 547.5L445 598L433.5 607L440 593V559.5Z" stroke="#FFFAFA"/>
<path d="M427.5 608.5C364.5 631.5 288.001 627.729 205 614L202.5 609.5C285.501 623.229 367 626 430 603L427.5 608.5Z" fill="#FFFEFE" stroke="#FFFAFA"/>
<path d="M116.27 198.025C116.27 247.526 444.258 259.026 492.77 205.025C493.457 197.382 486.586 190.971 474.258 185.701L472.758 189.025L484.758 200.525C466.258 239.025 194.258 243.525 123.758 203.525C122.109 200.293 122.271 198.949 123.758 197.025L125.758 198.025L137.258 189.025L134.258 183C121.343 187.313 114.524 192.357 116.27 198.025Z" fill="#FFFEFE" stroke="#FFFAFA"/>
</svg>
