<svg width="360" height="125" viewBox="0 0 360 125" fill="none" xmlns="http://www.w3.org/2000/svg">
<path d="M102.946 34.9633V6.29866H74.4437M66.9396 95.5509C72.6171 89.8179 75.6944 75.5399 74.4437 68.4608C71.8998 73.9566 67.6846 73.0385 69.2175 68.3271C72.5677 58.0302 71.5627 55.2377 69.2175 45.7713C66.7336 48.9722 63.627 50.0945 64.7627 45.7713C65.9831 42.1823 66.2218 40.1829 65.5488 36.655C64.3939 38.0747 62.5622 39.8953 61.3115 39.8953C61.6703 35.9029 62.4554 32.4206 60.1332 28.5725C58.9537 30.8429 58.1179 31.4711 56.3772 31.204C55.6834 22.3857 55.058 26.1377 52.5567 19.2589C46.9286 29.8898 49.4299 15.5069 41.9258 3C37.6448 11.9902 30.5391 10.475 31.4223 23.9674L27.1154 14.7571C20.7389 23.9674 19.9528 30.6401 19.9528 34.9633L15.8474 30.6401C14.5087 36.567 8.91968 40.8427 12.2925 46.8051C15.0038 51.5983 13.2269 52.0682 7.81046 44.6435C4.34802 51.2244 4.57939 64.2859 6.59043 66.9174C1 64.909 1.00006 58.6469 1 69.8309C0.999936 81.0148 5.65588 92.4241 8.62383 93.6748M39.0873 107.518C39.0873 107.518 40.6751 115.562 48.8046 123.066C31.4223 120.565 21.2895 118.689 8.62383 107.518H102.946C103.006 105.528 102.946 99.9283 102.946 99.9283L88.8266 107.518L102.946 114.937C103.006 112.946 102.946 107.347 102.946 107.347M96.3307 68.4608V12.3802H64.7627" stroke="#FFF7F7" stroke-width="2" stroke-linecap="round"/>
<path d="M39.1015 24.2617C39.1015 24.2617 39.1015 24.2617 39.1015 24.2617C38.7181 25.5989 38.3553 26.9784 38.0188 28.3576C32.6214 53.146 30.6174 79.2617 36.8077 104.326C37.2114 105.72 37.6625 107.092 38.1694 108.424C38.2637 108.672 38.4524 108.871 38.6956 108.977C38.9388 109.083 39.2167 109.087 39.4664 108.988C39.7161 108.89 39.9167 108.698 40.0224 108.454C40.1282 108.211 40.1304 107.937 40.0302 107.691C40.0302 107.691 40.0302 107.691 40.0302 107.691C39.5152 106.429 39.049 105.117 38.6265 103.776C31.9937 79.4749 33.2936 53.2162 38.1162 28.3802C38.4199 26.9946 38.7502 25.6077 39.1015 24.2617Z" fill="#FFF7F7"/>
<path d="M38.193 58.1561C38.0606 58.1474 37.9314 58.1919 37.8338 58.2817C37.7362 58.3714 37.678 58.499 37.6723 58.6346C37.6666 58.7702 37.7138 58.9022 37.8035 58.9998C37.8932 59.0974 38.0182 59.1527 38.1508 59.1552C38.1508 59.1552 38.1508 59.1552 38.1508 59.1552C38.5292 59.1629 38.9124 59.1456 39.2873 59.1075C46.1661 58.1843 50.9073 52.3209 53.1161 46.3515C53.243 46.0126 53.3608 45.6781 53.4761 45.3311C53.4761 45.3311 53.4761 45.3311 53.4761 45.3311C53.3451 45.6725 53.2118 46.0008 53.0697 46.3329C50.6135 52.2004 45.5531 57.6449 39.2121 58.1604C38.8713 58.1792 38.5272 58.1786 38.193 58.1561Z" fill="#FFF7F7"/>
<path d="M31.2918 53.6541C31.4064 53.721 31.4879 53.83 31.5169 53.9595C31.5459 54.0888 31.5201 54.228 31.4465 54.344C31.373 54.4601 31.2582 54.5429 31.1288 54.5718C30.9994 54.6009 30.866 54.5738 30.7566 54.4987C30.7566 54.4987 30.7566 54.4987 30.7566 54.4987C30.538 54.3461 30.3599 54.2046 30.1684 54.0497C26.8467 51.2735 24.4284 47.6243 22.9239 43.6845C22.8416 43.4676 22.7612 43.2474 22.6828 43.0238C22.7767 43.2413 22.8725 43.4551 22.97 43.6651C24.7416 47.4777 27.4045 50.888 30.7424 53.2927C30.9269 53.422 31.1219 53.5532 31.2918 53.6541Z" fill="#FFF7F7"/>
<path d="M30.3154 73.1917C30.5093 73.2369 30.6738 73.357 30.7712 73.5305C30.8686 73.7038 30.891 73.9164 30.8349 74.1165C30.7787 74.3166 30.649 74.4865 30.4756 74.5838C30.3021 74.6813 30.0992 74.6983 29.9101 74.6359C29.9101 74.6359 29.9101 74.6359 29.9101 74.6359C29.5776 74.5231 29.331 74.4132 29.0514 74.2863C24.2267 71.9907 20.7876 67.6796 18.9719 62.9513C18.8711 62.6913 18.7732 62.4261 18.6782 62.1555C18.7964 62.4168 18.9172 62.6719 19.0405 62.9211C21.2523 67.4609 25.0254 71.2846 29.5925 72.968C29.84 73.0562 30.1101 73.1433 30.3154 73.1917Z" fill="#FFF7F7"/>
<path d="M32.7022 97.6912C32.9654 97.725 33.2009 97.8621 33.3559 98.0774C33.511 98.2924 33.5729 98.5681 33.529 98.8386C33.485 99.1092 33.339 99.3511 33.1238 99.506C32.9086 99.6612 32.6419 99.7167 32.3816 99.6654C32.3816 99.6654 32.3816 99.6654 32.3816 99.6654C31.8262 99.5577 31.3029 99.4048 30.7896 99.2234C21.73 95.4931 16.783 86.8446 13.5068 78.5283C13.3297 78.0644 13.1551 77.5912 12.9831 77.1086C12.9831 77.1086 12.9831 77.1086 12.9831 77.1086C13.1861 77.579 13.3914 78.0393 13.599 78.4896C17.3468 86.5657 23.0891 94.6995 31.3691 97.4139C31.8188 97.5403 32.2658 97.637 32.7022 97.6912Z" fill="#FFF7F7"/>
<path d="M39.5382 80.6368C39.3393 80.6289 39.1477 80.7008 39.0054 80.8399C38.8631 80.9788 38.7818 81.1734 38.7793 81.3779C38.7769 81.5823 38.8536 81.7788 38.9926 81.921C39.1316 82.0634 39.3215 82.1398 39.5204 82.1367C39.5204 82.1367 39.5204 82.1367 39.5204 82.1367C40.0299 82.1303 40.5419 82.0599 41.0178 81.9585C49.2526 79.3581 55.6302 72.9397 58.7013 65.3015C58.8501 64.8707 58.9828 64.4275 59.0913 63.9878C59.0913 63.9878 59.0913 63.9878 59.0913 63.9878C58.9587 64.4208 58.8026 64.8551 58.6311 65.2751C55.245 72.6664 48.3037 78.6494 40.7571 80.5575C40.3466 80.6216 39.923 80.6542 39.5382 80.6368Z" fill="#FFF7F7"/>
<path d="M42.4383 100.698C42.1836 100.623 41.9128 100.654 41.6842 100.789C41.4557 100.923 41.2881 101.15 41.2195 101.415C41.1508 101.68 41.1872 101.96 41.3217 102.188C41.4562 102.417 41.6779 102.576 41.9367 102.634C41.9367 102.634 41.9367 102.634 41.9367 102.634C42.632 102.795 43.3069 102.756 43.9026 102.659C53.7057 99.2601 60.4291 91.7033 65.3437 83.4785C65.5847 82.9936 65.8033 82.499 65.9817 82.0098C65.7723 82.4865 65.5245 82.9647 65.2556 83.4313C60.0438 91.2399 52.2142 98.4222 43.6445 100.776C43.2011 100.822 42.7608 100.801 42.4383 100.698Z" fill="#FFF7F7"/>
<path d="M101.688 72V37.44H107.016L121.368 54.528L135.72 37.44H141.048V72H137.16V41.856L121.368 60.624L105.576 41.856V72H101.688ZM146.699 72V37.44H150.635V72H146.699ZM156.485 72V37.44H161.813L187.157 67.584V37.44H191.045V72H185.717L160.373 41.856V72H156.485ZM210.054 72V41.328H194.694V37.44H229.254V41.328H213.942V72H210.054ZM232.892 72V37.392H236.78V68.112H267.452V72H232.892ZM270.73 72V37.44H274.667V72H270.73ZM280.516 72V37.44H285.844L300.196 54.528L314.548 37.44H319.876V72H315.988V41.856L300.196 60.624L284.404 41.856V72H280.516ZM325.143 72V37.44H356.679V41.328H329.031V52.752H351.255V56.688H329.031V68.112H356.679V72H325.143Z" fill="white"/>
<path d="M227.472 108C226.768 108 226.117 107.829 225.52 107.488C224.944 107.147 224.485 106.688 224.144 106.112C223.803 105.515 223.632 104.864 223.632 104.16V103.264H226.224V104.16C226.224 104.501 226.341 104.8 226.576 105.056C226.832 105.291 227.131 105.408 227.472 105.408H242.832C243.173 105.408 243.461 105.291 243.696 105.056C243.952 104.8 244.08 104.501 244.08 104.16V99.008C244.08 98.6667 243.952 98.3787 243.696 98.144C243.461 97.9093 243.173 97.792 242.832 97.792H227.472C226.768 97.792 226.117 97.6213 225.52 97.28C224.944 96.9173 224.485 96.448 224.144 95.872C223.803 95.296 223.632 94.656 223.632 93.952V88.8C223.632 88.096 223.803 87.456 224.144 86.88C224.485 86.2827 224.944 85.8133 225.52 85.472C226.117 85.1307 226.768 84.96 227.472 84.96H242.832C243.536 84.96 244.176 85.1307 244.752 85.472C245.349 85.8133 245.819 86.2827 246.16 86.88C246.501 87.456 246.672 88.096 246.672 88.8V89.696H244.08V88.8C244.08 88.4587 243.952 88.1707 243.696 87.936C243.461 87.68 243.173 87.552 242.832 87.552H227.472C227.131 87.552 226.832 87.68 226.576 87.936C226.341 88.1707 226.224 88.4587 226.224 88.8V93.952C226.224 94.2933 226.341 94.5813 226.576 94.816C226.832 95.0507 227.131 95.168 227.472 95.168H242.832C243.536 95.168 244.176 95.3493 244.752 95.712C245.349 96.0533 245.819 96.512 246.16 97.088C246.501 97.664 246.672 98.304 246.672 99.008V104.16C246.672 104.864 246.501 105.515 246.16 106.112C245.819 106.688 245.349 107.147 244.752 107.488C244.176 107.829 243.536 108 242.832 108H227.472ZM259.193 108V87.552H248.953V84.96H271.993V87.552H261.785V108H259.193ZM278.162 108C277.458 108 276.807 107.829 276.21 107.488C275.634 107.147 275.175 106.688 274.834 106.112C274.492 105.515 274.322 104.864 274.322 104.16V84.96H276.914V104.16C276.914 104.501 277.031 104.8 277.266 105.056C277.522 105.291 277.82 105.408 278.162 105.408H293.522C293.863 105.408 294.151 105.291 294.386 105.056C294.642 104.8 294.77 104.501 294.77 104.16V84.96H297.362V104.16C297.362 104.864 297.191 105.515 296.85 106.112C296.508 106.688 296.039 107.147 295.442 107.488C294.866 107.829 294.226 108 293.522 108H278.162ZM300.95 108V84.96H320.15C320.854 84.96 321.494 85.1307 322.07 85.472C322.667 85.8133 323.136 86.2827 323.478 86.88C323.819 87.456 323.99 88.096 323.99 88.8V104.16C323.99 104.864 323.819 105.515 323.478 106.112C323.136 106.688 322.667 107.147 322.07 107.488C321.494 107.829 320.854 108 320.15 108H300.95ZM304.79 105.408H320.15C320.491 105.408 320.779 105.291 321.014 105.056C321.27 104.8 321.398 104.501 321.398 104.16V88.8C321.398 88.4587 321.27 88.1707 321.014 87.936C320.779 87.68 320.491 87.552 320.15 87.552H304.79C304.448 87.552 304.15 87.68 303.894 87.936C303.659 88.1707 303.542 88.4587 303.542 88.8V104.16C303.542 104.501 303.659 104.8 303.894 105.056C304.15 105.291 304.448 105.408 304.79 105.408ZM327.893 108V84.96H330.517V108H327.893ZM338.193 108C337.489 108 336.838 107.829 336.241 107.488C335.665 107.147 335.206 106.688 334.865 106.112C334.524 105.515 334.353 104.864 334.353 104.16V88.8C334.353 88.096 334.524 87.456 334.865 86.88C335.206 86.2827 335.665 85.8133 336.241 85.472C336.838 85.1307 337.489 84.96 338.193 84.96H353.553C354.257 84.96 354.897 85.1307 355.473 85.472C356.07 85.8133 356.54 86.2827 356.881 86.88C357.222 87.456 357.393 88.096 357.393 88.8V104.16C357.393 104.864 357.222 105.515 356.881 106.112C356.54 106.688 356.07 107.147 355.473 107.488C354.897 107.829 354.257 108 353.553 108H338.193ZM338.193 105.408H353.553C353.894 105.408 354.182 105.291 354.417 105.056C354.673 104.8 354.801 104.501 354.801 104.16V88.8C354.801 88.4587 354.673 88.1707 354.417 87.936C354.182 87.68 353.894 87.552 353.553 87.552H338.193C337.852 87.552 337.553 87.68 337.297 87.936C337.062 88.1707 336.945 88.4587 336.945 88.8V104.16C336.945 104.501 337.062 104.8 337.297 105.056C337.553 105.291 337.852 105.408 338.193 105.408Z" fill="white"/>
</svg>
