<svg width="174" height="40" viewBox="0 0 174 40" fill="none" xmlns="http://www.w3.org/2000/svg">
<path d="M1.792 32.9341V9.89408H5.344L14.912 21.2861L24.48 9.89408H28.032V32.9341H25.44V12.8381L14.912 25.3501L4.384 12.8381V32.9341H1.792ZM31.7995 32.9341V9.89408H34.4235V32.9341H31.7995ZM38.3233 32.9341V9.89408H41.8753L58.7713 29.9901V9.89408H61.3633V32.9341H57.8113L40.9153 12.8381V32.9341H38.3233ZM74.0363 32.9341V12.4861H63.7963V9.89408H86.8363V12.4861H76.6283V32.9341H74.0363ZM89.2615 32.9341V9.86208H91.8535V30.3421H112.302V32.9341H89.2615ZM114.487 32.9341V9.89408H117.111V32.9341H114.487ZM121.011 32.9341V9.89408H124.563L134.131 21.2861L143.699 9.89408H147.251V32.9341H144.659V12.8381L134.131 25.3501L123.603 12.8381V32.9341H121.011ZM150.762 32.9341V9.89408H171.786V12.4861H153.354V20.1021H168.17V22.7261H153.354V30.3421H171.786V32.9341H150.762Z" fill="white"/>
</svg>
