<svg width="268" height="82" viewBox="0 0 268 82" fill="none" xmlns="http://www.w3.org/2000/svg">
<path d="M76.8206 22.8131V4.20706H55.6225M50.0414 62.1401C54.264 58.4188 56.5526 49.1511 55.6225 44.5561C53.7305 48.1233 50.5955 47.5274 51.7356 44.4693C54.2272 37.7857 53.4797 35.9731 51.7356 29.8285C49.8882 31.9061 47.5778 32.6347 48.4224 29.8285C49.33 27.4989 49.5076 26.2011 49.0071 23.9112C48.1481 24.8327 46.7858 26.0144 45.8556 26.0144C46.1225 23.423 46.7064 21.1626 44.9793 18.6649C44.1021 20.1386 43.4804 20.5463 42.1858 20.373C41.6698 14.649 41.2047 17.0845 39.3444 12.6195C35.1586 19.5199 37.0189 10.184 31.4379 2.06592C28.2539 7.90137 22.9692 6.91788 23.626 15.6757L20.4229 9.69737C15.6805 15.6757 15.0958 20.0069 15.0958 22.8131L12.0425 20.0069C11.0469 23.854 6.89013 26.6294 9.39858 30.4995C11.4151 33.6107 10.0936 33.9157 6.06516 29.0965C3.49003 33.368 3.66211 41.8462 5.15779 43.5543C1 42.2506 1.00005 38.186 1 45.4454C0.999953 52.7048 4.46273 60.1105 6.67009 60.9223M29.3268 69.9078C29.3268 69.9078 30.5077 75.1291 36.5538 79.9999C23.626 78.3763 16.0899 77.1586 6.67009 69.9078H76.8206C76.865 68.6159 76.8206 64.9814 76.8206 64.9814L66.3195 69.9078L76.8206 74.7232C76.865 73.4313 76.8206 69.7968 76.8206 69.7968M71.9006 44.5561V8.15451H48.4224" stroke="#FFF7F7" stroke-width="2" stroke-linecap="round"/>
<path d="M29.3376 15.8667C29.3376 15.8667 29.3376 15.8667 29.3376 15.8667C29.0503 16.7268 28.7776 17.6157 28.5242 18.5049C24.4381 34.5149 22.8415 51.6433 27.4223 68.003C27.7195 68.9094 28.0521 69.803 28.4249 70.6696C28.5296 70.9133 28.7264 71.1036 28.9746 71.1973C29.2226 71.2911 29.5016 71.2807 29.7478 71.1696C29.994 71.0585 30.1863 70.856 30.28 70.608C30.3739 70.3599 30.3614 70.0864 30.2478 69.8467C30.2478 69.8467 30.2478 69.8467 30.2478 69.8467C29.8724 69.0556 29.5293 68.2278 29.2171 67.3796C24.2399 51.8784 25.1022 34.5983 28.6209 18.5306C28.8417 17.6341 29.0821 16.7368 29.3376 15.8667Z" fill="#FFF7F7"/>
<path d="M28.6649 37.6922C28.5325 37.6829 28.4036 37.727 28.3065 37.8173C28.2093 37.9075 28.1519 38.0365 28.1468 38.1735C28.1418 38.3104 28.1896 38.4433 28.2799 38.5404C28.3701 38.6376 28.4954 38.6911 28.6281 38.6915C28.6281 38.6915 28.6281 38.6915 28.6281 38.6915C28.8964 38.6931 29.1669 38.6802 29.4335 38.6548C34.2634 38.0951 38.018 34.4152 39.7483 30.2492C39.8478 30.0141 39.9392 29.7833 40.0287 29.543C40.0287 29.543 40.0287 29.543 40.0287 29.543C39.9238 29.777 39.8172 30.0008 39.7029 30.2282C37.7191 34.2703 33.7475 37.513 29.3731 37.7067C29.135 37.7136 28.8968 37.7091 28.6649 37.6922Z" fill="#FFF7F7"/>
<path d="M23.5849 34.7825C23.7031 34.8399 23.7892 34.9414 23.8222 35.0683C23.8554 35.1949 23.8328 35.3364 23.7615 35.4582C23.6902 35.58 23.5765 35.6711 23.4476 35.7081C23.3185 35.7453 23.1847 35.7252 23.0736 35.6558C22.9113 35.5537 22.787 35.4638 22.6475 35.3622C20.2575 33.5619 18.4356 31.1658 17.3061 28.493C17.2443 28.3459 17.1841 28.1965 17.1255 28.045C17.1994 28.1894 17.2748 28.3311 17.3515 28.4702C18.7448 30.9955 20.7884 33.1275 23.1941 34.5693C23.3271 34.6469 23.4673 34.7253 23.5849 34.7825Z" fill="#FFF7F7"/>
<path d="M22.8299 47.3674C23.0263 47.4022 23.1956 47.5134 23.2991 47.6837C23.4026 47.8536 23.4317 48.0686 23.3817 48.2743C23.3317 48.48 23.2072 48.6574 23.0374 48.7603C22.8674 48.8637 22.6661 48.8841 22.4758 48.8242C22.4758 48.8242 22.4758 48.8242 22.4758 48.8242C22.2284 48.7465 22.0592 48.6756 21.856 48.5912C18.4158 47.0944 15.7558 44.2794 14.3711 41.011C14.2946 40.8321 14.2204 40.6496 14.1486 40.4635C14.1486 40.4635 14.1486 40.4635 14.1486 40.4635C14.2431 40.6393 14.3396 40.8105 14.438 40.9773C16.2131 44.0305 19.1263 46.3217 22.3301 47.2484C22.5044 47.2971 22.6943 47.3448 22.8299 47.3674Z" fill="#FFF7F7"/>
<path d="M24.5854 63.1808C24.8503 63.2053 25.091 63.3341 25.2536 63.5463C25.4162 63.7579 25.4874 64.0356 25.4524 64.3107C25.4174 64.5858 25.2793 64.8338 25.0695 64.9927C24.8597 65.152 24.5953 65.2092 24.3336 65.1591C24.3336 65.1591 24.3336 65.1591 24.3336 65.1591C23.942 65.0865 23.57 64.9876 23.2025 64.8707C16.7298 62.5381 12.7736 56.8337 10.3104 51.1379C10.1758 50.8214 10.0433 50.4986 9.91298 50.1692C9.91298 50.1692 9.91298 50.1692 9.91298 50.1692C10.0736 50.4853 10.2362 50.7941 10.4004 51.0956C13.3426 56.5371 17.9469 61.6253 23.6764 63.0397C23.9872 63.107 24.2922 63.1559 24.5854 63.1808Z" fill="#FFF7F7"/>
<path d="M29.664 52.1964C29.4652 52.1865 29.2737 52.2566 29.1316 52.396C28.9895 52.535 28.9084 52.7319 28.9063 52.9386C28.9042 53.1454 28.9811 53.3438 29.1203 53.4858C29.2595 53.628 29.4495 53.7021 29.6485 53.6963C30.0138 53.6876 30.3769 53.6415 30.7209 53.5756C36.6115 51.9199 41.4523 47.846 43.8999 42.566C44.0173 42.267 44.1213 41.9592 44.2052 41.6528C44.0975 41.9516 43.9706 42.2491 43.8312 42.5359C41.0762 47.54 35.7718 51.1424 30.5027 52.1674C30.2156 52.1993 29.9267 52.2118 29.664 52.1964Z" fill="#FFF7F7"/>
<path d="M31.8533 65.1338C31.5973 65.0637 31.3283 65.1002 31.1039 65.242C30.8797 65.3833 30.7185 65.6184 30.6574 65.8887C30.5963 66.159 30.6407 66.4405 30.7823 66.6646C30.9238 66.8891 31.151 67.0377 31.4123 67.0846C31.4123 67.0846 31.4123 67.0846 31.4123 67.0846C31.9268 67.1833 32.427 67.1563 32.8529 67.0942C39.982 64.9223 45.0248 59.988 48.8323 54.3672C49.0219 54.0304 49.191 53.691 49.3293 53.3506C49.1607 53.6771 48.9635 53.998 48.7474 54.3144C44.6532 59.4953 38.633 63.9787 32.6496 65.2051C32.3538 65.2216 32.0537 65.1982 31.8533 65.1338Z" fill="#FFF7F7"/>
<path d="M75.6787 47.6968V24.6568H79.2307L88.7987 36.0488L98.3667 24.6568H101.919V47.6968H99.3267V27.6008L88.7987 40.1128L78.2707 27.6008V47.6968H75.6787ZM105.686 47.6968V24.6568H108.31V47.6968H105.686ZM112.21 47.6968V24.6568H115.762L132.658 44.7528V24.6568H135.25V47.6968H131.698L114.802 27.6008V47.6968H112.21ZM147.923 47.6968V27.2488H137.683V24.6568H160.723V27.2488H150.515V47.6968H147.923ZM163.148 47.6968V24.6248H165.74V45.1048H186.188V47.6968H163.148ZM188.374 47.6968V24.6568H190.998V47.6968H188.374ZM194.897 47.6968V24.6568H198.449L208.017 36.0488L217.585 24.6568H221.137V47.6968H218.545V27.6008L208.017 40.1128L197.489 27.6008V47.6968H194.897ZM224.649 47.6968V24.6568H245.673V27.2488H227.241V34.8648H242.057V37.4888H227.241V45.1048H245.673V47.6968H224.649Z" fill="white"/>
<path d="M168.785 70.4497C168.345 70.4497 167.939 70.343 167.565 70.1297C167.205 69.9164 166.919 69.6297 166.705 69.2697C166.492 68.8964 166.385 68.4897 166.385 68.0497V67.4897H168.005V68.0497C168.005 68.263 168.079 68.4497 168.225 68.6097C168.385 68.7564 168.572 68.8297 168.785 68.8297H178.385C178.599 68.8297 178.779 68.7564 178.925 68.6097C179.085 68.4497 179.165 68.263 179.165 68.0497V64.8297C179.165 64.6164 179.085 64.4364 178.925 64.2897C178.779 64.143 178.599 64.0697 178.385 64.0697H168.785C168.345 64.0697 167.939 63.963 167.565 63.7497C167.205 63.523 166.919 63.2297 166.705 62.8697C166.492 62.5097 166.385 62.1097 166.385 61.6697V58.4497C166.385 58.0097 166.492 57.6097 166.705 57.2497C166.919 56.8764 167.205 56.583 167.565 56.3697C167.939 56.1564 168.345 56.0497 168.785 56.0497H178.385C178.825 56.0497 179.225 56.1564 179.585 56.3697C179.959 56.583 180.252 56.8764 180.465 57.2497C180.679 57.6097 180.785 58.0097 180.785 58.4497V59.0097H179.165V58.4497C179.165 58.2364 179.085 58.0564 178.925 57.9097C178.779 57.7497 178.599 57.6697 178.385 57.6697H168.785C168.572 57.6697 168.385 57.7497 168.225 57.9097C168.079 58.0564 168.005 58.2364 168.005 58.4497V61.6697C168.005 61.883 168.079 62.063 168.225 62.2097C168.385 62.3564 168.572 62.4297 168.785 62.4297H178.385C178.825 62.4297 179.225 62.543 179.585 62.7697C179.959 62.983 180.252 63.2697 180.465 63.6297C180.679 63.9897 180.785 64.3897 180.785 64.8297V68.0497C180.785 68.4897 180.679 68.8964 180.465 69.2697C180.252 69.6297 179.959 69.9164 179.585 70.1297C179.225 70.343 178.825 70.4497 178.385 70.4497H168.785ZM188.611 70.4497V57.6697H182.211V56.0497H196.611V57.6697H190.231V70.4497H188.611ZM200.466 70.4497C200.026 70.4497 199.62 70.343 199.246 70.1297C198.886 69.9164 198.6 69.6297 198.386 69.2697C198.173 68.8964 198.066 68.4897 198.066 68.0497V56.0497H199.686V68.0497C199.686 68.263 199.76 68.4497 199.906 68.6097C200.066 68.7564 200.253 68.8297 200.466 68.8297H210.066C210.28 68.8297 210.46 68.7564 210.606 68.6097C210.766 68.4497 210.846 68.263 210.846 68.0497V56.0497H212.466V68.0497C212.466 68.4897 212.36 68.8964 212.146 69.2697C211.933 69.6297 211.64 69.9164 211.266 70.1297C210.906 70.343 210.506 70.4497 210.066 70.4497H200.466ZM214.709 70.4497V56.0497H226.709C227.149 56.0497 227.549 56.1564 227.909 56.3697C228.282 56.583 228.575 56.8764 228.789 57.2497C229.002 57.6097 229.109 58.0097 229.109 58.4497V68.0497C229.109 68.4897 229.002 68.8964 228.789 69.2697C228.575 69.6297 228.282 69.9164 227.909 70.1297C227.549 70.343 227.149 70.4497 226.709 70.4497H214.709ZM217.109 68.8297H226.709C226.922 68.8297 227.102 68.7564 227.249 68.6097C227.409 68.4497 227.489 68.263 227.489 68.0497V58.4497C227.489 58.2364 227.409 58.0564 227.249 57.9097C227.102 57.7497 226.922 57.6697 226.709 57.6697H217.109C216.895 57.6697 216.709 57.7497 216.549 57.9097C216.402 58.0564 216.329 58.2364 216.329 58.4497V68.0497C216.329 68.263 216.402 68.4497 216.549 68.6097C216.709 68.7564 216.895 68.8297 217.109 68.8297ZM231.549 70.4497V56.0497H233.189V70.4497H231.549ZM237.986 70.4497C237.546 70.4497 237.139 70.343 236.766 70.1297C236.406 69.9164 236.119 69.6297 235.906 69.2697C235.693 68.8964 235.586 68.4897 235.586 68.0497V58.4497C235.586 58.0097 235.693 57.6097 235.906 57.2497C236.119 56.8764 236.406 56.583 236.766 56.3697C237.139 56.1564 237.546 56.0497 237.986 56.0497H247.586C248.026 56.0497 248.426 56.1564 248.786 56.3697C249.159 56.583 249.453 56.8764 249.666 57.2497C249.879 57.6097 249.986 58.0097 249.986 58.4497V68.0497C249.986 68.4897 249.879 68.8964 249.666 69.2697C249.453 69.6297 249.159 69.9164 248.786 70.1297C248.426 70.343 248.026 70.4497 247.586 70.4497H237.986ZM237.986 68.8297H247.586C247.799 68.8297 247.979 68.7564 248.126 68.6097C248.286 68.4497 248.366 68.263 248.366 68.0497V58.4497C248.366 58.2364 248.286 58.0564 248.126 57.9097C247.979 57.7497 247.799 57.6697 247.586 57.6697H237.986C237.773 57.6697 237.586 57.7497 237.426 57.9097C237.279 58.0564 237.206 58.2364 237.206 58.4497V68.0497C237.206 68.263 237.279 68.4497 237.426 68.6097C237.586 68.7564 237.773 68.8297 237.986 68.8297Z" fill="white"/>
</svg>
