<svg width="249" height="82" viewBox="0 0 249 82" fill="none" xmlns="http://www.w3.org/2000/svg">
<path d="M76.8206 69.8418H6.67009C16.0899 77.0927 23.626 78.3104 36.5538 79.934C30.5077 75.0631 29.3268 69.8418 29.3268 69.8418M76.8206 69.8418C76.865 68.5499 76.8206 64.9155 76.8206 64.9155L66.3195 69.8418L76.8206 74.6572C76.865 73.3653 76.8206 69.8418 76.8206 69.8418ZM76.8206 22.7472V2H55.6225M50.0414 62.0741C54.264 58.3529 56.5526 49.0851 55.6225 44.4902C53.7305 48.0574 50.5955 47.4615 51.7356 44.4034C54.2272 37.7198 53.4797 35.9072 51.7356 29.7626C49.8882 31.8402 47.5778 32.5687 48.4224 29.7626C49.33 27.433 49.5076 26.1352 49.0071 23.8452C48.1481 24.7668 46.7858 25.9485 45.8556 25.9485C46.1225 23.3571 46.7064 21.0967 44.9793 18.599C44.1021 20.0726 43.4804 20.4804 42.1858 20.307C41.6698 14.5831 41.2047 17.0185 39.3444 12.5536C35.1586 19.454 37.0189 10.1181 31.4379 2C28.2539 7.83545 22.9692 6.85196 23.626 15.6098L20.4229 9.63145C15.6805 15.6098 15.0958 19.941 15.0958 22.7472L12.0425 19.941C11.0469 23.7881 6.89013 26.5635 9.39858 30.4336C11.4151 33.5448 10.0936 33.8498 6.06516 29.0305C3.49003 33.3021 3.66211 41.7803 5.15779 43.4884C1 42.1847 1.00005 38.1201 1 45.3795C0.999953 52.6389 4.46273 60.0446 6.67009 60.8564M71.9006 44.4902V8.0886H48.4224" stroke="#FFF7F7" stroke-width="2" stroke-linecap="round"/>
<path d="M29.3376 15.8008C29.0503 16.6609 28.7776 17.5497 28.5242 18.439C24.4381 34.449 22.8415 51.5774 27.4223 67.9371C27.7195 68.8435 28.0521 69.7371 28.4249 70.6037C28.5296 70.8474 28.7264 71.0376 28.9746 71.1314C29.2226 71.2252 29.5016 71.2148 29.7478 71.1037C29.994 70.9925 30.1863 70.7901 30.28 70.5421C30.3739 70.2939 30.3614 70.0205 30.2478 69.7808C29.8724 68.9897 29.5293 68.1619 29.2171 67.3137C24.2399 51.8125 25.1022 34.5324 28.6209 18.4647C28.8417 17.5681 29.0821 16.6709 29.3376 15.8008Z" fill="#FFF7F7"/>
<path d="M28.6649 37.6263C28.5325 37.617 28.4036 37.6611 28.3065 37.7514C28.2093 37.8416 28.1519 37.9706 28.1468 38.1075C28.1418 38.2445 28.1896 38.3774 28.2799 38.4745C28.3701 38.5717 28.4954 38.6252 28.6281 38.6256C28.8964 38.6272 29.1669 38.6143 29.4335 38.5889C34.2634 38.0292 38.018 34.3493 39.7483 30.1833C39.8478 29.9482 39.9392 29.7174 40.0287 29.4771C39.9238 29.7111 39.8172 29.9349 39.7029 30.1623C37.7191 34.2044 33.7475 37.447 29.3731 37.6408C29.135 37.6477 28.8968 37.6432 28.6649 37.6263Z" fill="#FFF7F7"/>
<path d="M23.5849 34.7166C23.7031 34.774 23.7892 34.8755 23.8222 35.0023C23.8554 35.129 23.8328 35.2705 23.7615 35.3923C23.6902 35.5141 23.5765 35.6052 23.4476 35.6422C23.3185 35.6793 23.1847 35.6593 23.0736 35.5899C22.9113 35.4878 22.787 35.3979 22.6475 35.2963C20.2575 33.496 18.4356 31.0999 17.3061 28.4271C17.2443 28.28 17.1841 28.1306 17.1255 27.9791C17.1994 28.1235 17.2748 28.2652 17.3515 28.4043C18.7448 30.9296 20.7884 33.0616 23.1941 34.5034C23.3271 34.5809 23.4673 34.6593 23.5849 34.7166Z" fill="#FFF7F7"/>
<path d="M22.8299 47.3014C23.0263 47.3363 23.1956 47.4475 23.2991 47.6178C23.4026 47.7877 23.4317 48.0027 23.3817 48.2084C23.3317 48.4141 23.2072 48.5915 23.0374 48.6944C22.8674 48.7977 22.6661 48.8181 22.4758 48.7583C22.2284 48.6806 22.0592 48.6097 21.856 48.5253C18.4158 47.0285 15.7558 44.2135 14.3711 40.9451C14.2946 40.7662 14.2204 40.5837 14.1486 40.3976C14.2431 40.5733 14.3396 40.7445 14.438 40.9113C16.2131 43.9646 19.1263 46.2558 22.3301 47.1825C22.5044 47.2312 22.6943 47.2789 22.8299 47.3014Z" fill="#FFF7F7"/>
<path d="M24.5854 63.1149C24.8503 63.1394 25.091 63.2682 25.2536 63.4803C25.4162 63.692 25.4874 63.9697 25.4524 64.2448C25.4174 64.5199 25.2793 64.7679 25.0695 64.9268C24.8597 65.0861 24.5953 65.1433 24.3336 65.0932C23.942 65.0206 23.57 64.9217 23.2025 64.8048C16.7298 62.4721 12.7736 56.7678 10.3104 51.072C10.1758 50.7555 10.0433 50.4327 9.91298 50.1033C10.0736 50.4194 10.2362 50.7281 10.4004 51.0297C13.3426 56.4712 17.9469 61.5594 23.6764 62.9738C23.9872 63.0411 24.2922 63.09 24.5854 63.1149Z" fill="#FFF7F7"/>
<path d="M29.664 52.1305C29.4652 52.1206 29.2737 52.1907 29.1316 52.33C28.9895 52.4691 28.9084 52.6659 28.9063 52.8727C28.9042 53.0795 28.9811 53.2779 29.1203 53.4199C29.2595 53.5621 29.4495 53.6362 29.6485 53.6304C30.0138 53.6217 30.3769 53.5756 30.7209 53.5096C36.6115 51.854 41.4523 47.7801 43.8999 42.5001C44.0173 42.2011 44.1213 41.8932 44.2052 41.5869C44.0975 41.8857 43.9706 42.1832 43.8312 42.47C41.0762 47.4741 35.7718 51.0764 30.5027 52.1014C30.2156 52.1334 29.9267 52.1459 29.664 52.1305Z" fill="#FFF7F7"/>
<path d="M31.8533 65.0679C31.5973 64.9978 31.3283 65.0343 31.1039 65.1761C30.8797 65.3174 30.7185 65.5525 30.6574 65.8228C30.5963 66.0931 30.6407 66.3746 30.7823 66.5987C30.9238 66.8231 31.151 66.9718 31.4123 67.0187C31.9268 67.1174 32.427 67.0904 32.8529 67.0283C39.982 64.8564 45.0248 59.9221 48.8323 54.3013C49.0219 53.9645 49.191 53.6251 49.3293 53.2847C49.1607 53.6111 48.9635 53.932 48.7474 54.2485C44.6532 59.4294 38.633 63.9128 32.6496 65.1392C32.3538 65.1557 32.0537 65.1323 31.8533 65.0679Z" fill="#FFF7F7"/>
<path d="M75.792 55.9341V32.8941H79.344L88.912 44.2861L98.48 32.8941H102.032V55.9341H99.44V35.8381L88.912 48.3501L78.384 35.8381V55.9341H75.792ZM105.799 55.9341V32.8941H108.424V55.9341H105.799ZM112.323 55.9341V32.8941H115.875L132.771 52.9901V32.8941H135.363V55.9341H131.811L114.915 35.8381V55.9341H112.323ZM148.036 55.9341V35.4861H137.796V32.8941H160.836V35.4861H150.628V55.9341H148.036ZM163.262 55.9341V32.8621H165.854V53.3421H186.302V55.9341H163.262ZM188.487 55.9341V32.8941H191.111V55.9341H188.487ZM195.011 55.9341V32.8941H198.563L208.131 44.2861L217.699 32.8941H221.251V55.9341H218.659V35.8381L208.131 48.3501L197.603 35.8381V55.9341H195.011ZM224.762 55.9341V32.8941H245.786V35.4861H227.354V43.1021H242.17V45.7261H227.354V53.3421H245.786V55.9341H224.762Z" fill="white"/>
</svg>
