<svg width="1440" height="632" viewBox="0 0 1440 632" fill="none" xmlns="http://www.w3.org/2000/svg">
<path d="M71.355 381.386L-15.1524 456.275L-29.8293 543.281L1485.71 533.611L1482.65 459.221L1325.03 326.504L1288.59 246.481L1263.58 271.396L1251.47 250.625L1204.64 306.195L1171.39 318.274L1147.21 350.611L1042.15 165.371L922.086 235.64L762.723 390.842L727.326 378.628L669.794 300.251L635.018 315.195L557.08 407.136L509.213 388.657L408.532 294.677L375.39 250.589L323.745 266.848L219.441 385.557L204.144 359.045L171.769 353.584L138.64 303.255L121.6 305.583L71.355 381.386Z" fill="#7E7878" stroke="black"/>
<path d="M129.011 310.995L138.299 305.278L138.811 302.243L122.112 302.547L71.1844 382.398L-15.323 457.287L-29.9999 544.292L29.9959 484.701L88.4188 452.936L74.1213 432.836L120.245 393.795L115.736 371.184L106.618 375.889L41.6009 415.905L108.837 362.737L129.011 310.995Z" fill="#D9D9D9"/>
<path d="M188.675 419.905L218.6 384.374L322.904 265.666L370.161 250.747L340.455 346.663L278.278 400.684L354.46 343.823L359.361 339.447L383.543 393.47L354.276 437.436L441.55 487.534L365.916 522.638L426.776 538.107L276.996 537.812L276.545 509.643L215.198 484.727L224.34 467.541L185.737 455.827L204.862 422.636L188.675 419.905Z" fill="#D9D9D9"/>
<path d="M652.717 321.302L674.682 302.116L728.337 378.799L740.258 406.822L712.455 392.767L747.754 454.908L656.592 409.356L672.573 345.461L652.717 321.302Z" fill="#D9D9D9"/>
<path d="M1328.75 322.969L1286.57 246.14L1262.41 265.996L1277.01 302.795L1376.7 384.122L1307.47 338.107L1253.7 317.592L1283.47 363.192L1330.96 402.417L1311.34 426.162L1487.91 526.7L1484.34 455.345L1328.75 322.969Z" fill="#D9D9D9"/>
<path d="M129.011 310.995L138.299 305.278L138.811 302.243L122.112 302.547L71.1844 382.398L-15.323 457.287L-29.9999 544.292L29.9959 484.701L88.4188 452.936L74.1213 432.836L120.245 393.795L115.736 371.184L106.618 375.889L41.6009 415.905L108.837 362.737L129.011 310.995Z" stroke="black"/>
<path d="M188.675 419.905L218.6 384.374L322.904 265.666L370.161 250.747L340.455 346.663L278.278 400.684L354.46 343.823L359.361 339.447L383.543 393.47L354.276 437.436L441.55 487.534L365.916 522.638L426.776 538.107L276.996 537.812L276.545 509.643L215.198 484.727L224.34 467.541L185.737 455.827L204.862 422.636L188.675 419.905Z" stroke="black"/>
<path d="M652.717 321.302L674.682 302.116L728.337 378.799L740.258 406.822L712.455 392.767L747.754 454.908L656.592 409.356L672.573 345.461L652.717 321.302Z" stroke="black"/>
<path d="M1328.75 322.969L1286.57 246.14L1262.41 265.996L1277.01 302.795L1376.7 384.122L1307.47 338.107L1253.7 317.592L1283.47 363.192L1330.96 402.417L1311.34 426.162L1487.91 526.7L1484.34 455.345L1328.75 322.969Z" stroke="black"/>
</svg>
